<svg width="180" height="180" viewBox="0 0 180 180" fill="none" xmlns="http://www.w3.org/2000/svg">
<circle cx="90" cy="90" r="30" transform="rotate(90 90 90)" fill="white"/>
<ellipse cx="90" cy="90" rx="45" ry="45" transform="rotate(90 90 90)" stroke="white" stroke-width="10"/>
<path d="M25 90C25 54.1015 54.1015 25 90 25C125.899 25 155 54.1015 155 90" stroke="white" stroke-width="10"/>
<path d="M155 90C155 125.899 125.899 155 90 155C54.1015 155 25 125.899 25 90" stroke="#3F88FB" stroke-width="10" stroke-dasharray="1 4"/>
<path d="M90 175C43.0558 175 4.99999 136.944 5 90C5 43.0558 43.0558 5 90 5" stroke="white" stroke-width="10"/>
<path d="M89.9999 5C136.944 5 175 43.0558 175 90C175 136.944 136.944 175 89.9999 175" stroke="#3F88FB" stroke-width="10" stroke-dasharray="1 4"/>
</svg>
