<svg width="231" height="94" viewBox="0 0 231 94" fill="none" xmlns="http://www.w3.org/2000/svg">
<path d="M7.70999 84.45C8.31905 84.2126 8.99502 84.2124 9.60423 84.4494C10.2134 84.6864 10.7115 85.1434 11 85.73C11.2916 86.62 11.2916 87.5799 11 88.47L9.85999 92.66L0.399994 90.1L1.46999 86.17C1.64571 85.3214 2.08703 84.5509 2.72999 83.97C3.00825 83.7505 3.33623 83.6029 3.68501 83.5401C4.0338 83.4773 4.39267 83.5013 4.72999 83.61C5.21437 83.7223 5.64731 83.9934 5.95999 84.38C6.25796 84.7706 6.43523 85.2399 6.46999 85.73C6.72247 85.1725 7.16079 84.72 7.70999 84.45ZM4.99999 90.27L5.79 87.38C5.98736 86.7962 5.98736 86.1637 5.79 85.58C5.67868 85.3515 5.51972 85.1494 5.3238 84.9875C5.12787 84.8255 4.89954 84.7074 4.65415 84.6411C4.40877 84.5748 4.15202 84.5618 3.90119 84.603C3.65036 84.6442 3.41127 84.7386 3.2 84.88C2.73982 85.2895 2.42417 85.8366 2.29999 86.44L1.51999 89.33L4.99999 90.27ZM9.08999 85.27C7.89999 84.94 7.08999 85.6 6.63999 87.27L5.76999 90.47L9.37999 91.47L10.25 88.27C10.65 86.62 10.26 85.65 9.04999 85.32L9.08999 85.27Z" fill="white"/>
<path d="M10.56 76.68C10.8461 76.5222 11.1652 76.4337 11.4917 76.4215C11.8182 76.4094 12.143 76.4739 12.44 76.61C12.7707 76.7111 13.0722 76.8901 13.3193 77.132C13.5664 77.3739 13.7519 77.6716 13.86 78C14.0515 78.7726 13.9739 79.5874 13.64 80.31L12.64 83.03L5.75 80.43L6.1 79.5L8.51 80.41L9.28 78.41C9.49782 77.7047 9.94925 77.0946 10.56 76.68ZM8.24 73.68L8.59 72.75L15.48 75.35L15.13 76.28L8.24 73.68ZM13.07 78.45C12.9861 78.2285 12.8522 78.0294 12.6787 77.8681C12.5053 77.7068 12.297 77.5877 12.07 77.52C11.8629 77.424 11.6357 77.3793 11.4077 77.3897C11.1796 77.4002 10.9575 77.4654 10.76 77.58C10.319 77.9071 9.99331 78.3658 9.83 78.89L9.15 80.62L12.21 81.78L12.89 80.05C13.1311 79.5636 13.1947 79.0083 13.07 78.48V78.45Z" fill="white"/>
<path d="M18.9 66.15L21.28 67.3L20.87 68.14L19.27 67.37L16.4 73.3L18 74.08L17.59 74.92L15.21 73.77L15.39 73.39C15.58 72.94 15.39 72.47 14.85 72.01C14.0694 71.4005 13.2361 70.8617 12.36 70.4L10.18 69.24L12.55 64.35L18.4 67.18L18.9 66.15ZM15 71C15.4714 71.2659 15.8276 71.6969 16 72.21L18 68.07L12.95 65.63L11.41 68.82L12.85 69.61C13.598 70.023 14.3164 70.4874 15 71Z" fill="white"/>
<path d="M17.14 57.54C17.5212 57.447 17.9178 57.4354 18.3037 57.506C18.6897 57.5767 19.0565 57.728 19.38 57.95L23.32 60.25L22.84 61.07L21.84 60.49C22.0599 60.8861 22.1573 61.3385 22.12 61.79C22.0699 62.3216 21.8989 62.8347 21.62 63.29C21.2954 63.9149 20.7658 64.4092 20.12 64.69C19.8429 64.7994 19.5441 64.8428 19.2473 64.8167C18.9505 64.7907 18.6639 64.6959 18.41 64.54C18.1505 64.4073 17.9252 64.2164 17.7518 63.9822C17.5783 63.748 17.4613 63.4769 17.41 63.19C17.3544 62.4069 17.5815 61.6299 18.05 61L19.23 59L18.84 58.78C18.6199 58.6305 18.3708 58.5292 18.1088 58.4827C17.8469 58.4362 17.5781 58.4455 17.32 58.51C16.7899 58.7015 16.3557 59.0927 16.11 59.6C15.8729 59.9936 15.7102 60.4275 15.63 60.88C15.5552 61.3 15.5552 61.73 15.63 62.15H14.77C14.6716 61.6447 14.6716 61.1252 14.77 60.62C14.8872 60.0703 15.0932 59.5434 15.38 59.06C15.748 58.3448 16.3788 57.8 17.14 57.54ZM21.42 61.33C21.393 60.8443 21.2147 60.3792 20.91 60L19.91 59.4L18.75 61.4C18.11 62.49 18.17 63.26 18.93 63.7C19.0963 63.8028 19.2851 63.8638 19.4802 63.8778C19.6752 63.8917 19.8707 63.8581 20.05 63.78C20.483 63.564 20.834 63.213 21.05 62.78C21.3096 62.342 21.438 61.8388 21.42 61.33Z" fill="white"/>
<path d="M25.52 50.93L22 56C22.295 56.1846 22.6236 56.3088 22.9669 56.3654C23.3102 56.4221 23.6614 56.41 24 56.33C24.7121 56.1427 25.3267 55.6925 25.72 55.07C25.9696 54.716 26.1432 54.3143 26.23 53.89C26.325 53.4855 26.325 53.0645 26.23 52.66L27.08 52.56C27.2053 53.0589 27.2053 53.5811 27.08 54.08C26.9645 54.6228 26.7399 55.1365 26.42 55.59C26.0685 56.1685 25.581 56.6525 25 57C24.4194 57.2943 23.7688 57.4223 23.12 57.37C22.4484 57.3015 21.8051 57.0641 21.25 56.68C20.6911 56.3043 20.2341 55.7958 19.92 55.2C19.6341 54.6383 19.5095 54.0083 19.56 53.38C19.6252 52.745 19.8501 52.1368 20.2138 51.6123C20.5776 51.0877 21.0682 50.6637 21.64 50.38C22.2058 50.1204 22.8307 50.0168 23.45 50.08C24.1202 50.1616 24.7595 50.4091 25.31 50.8L25.52 50.93ZM20.42 53.93C20.5231 54.5984 20.8816 55.2007 21.42 55.61L24.42 51.31C23.828 50.9561 23.1221 50.845 22.45 51C21.8003 51.1471 21.2335 51.5417 20.87 52.1C20.4947 52.6201 20.3336 53.2645 20.42 53.9V53.93Z" fill="white"/>
<path d="M29 40.2L34.68 44.89L34.1 45.59L29.61 41.88L31.51 47.32L31.23 47.66L25.52 46.82L30.02 50.53L29.44 51.24L23.76 46.55L24.4 45.77L30.48 46.77L28.41 40.94L29 40.2Z" fill="white"/>
<path d="M43.62 34.79L45.44 36.71L44.76 37.36L43.54 36.07L38.75 40.61L40 41.9L39.32 42.54L37.49 40.62L37.8 40.34C38.14 39.97 38.13 39.48 37.8 38.85C37.2764 38.0017 36.6737 37.2048 36 36.47L34.37 34.61L38.31 30.87L42.79 35.58L43.62 34.79ZM38.28 37.94C38.6065 38.3652 38.7666 38.8951 38.73 39.43L42.06 36.27L38.2 32.2L35.63 34.63L36.7 35.88C37.2734 36.5295 37.8013 37.2178 38.28 37.94Z" fill="white"/>
<path d="M40.92 28.57L41.69 27.95L45.36 32.51L45.53 24.87L46.21 24.32L50.82 30.06L50.05 30.68L46.38 26.12L46.23 33.75L45.53 34.31L40.92 28.57Z" fill="white"/>
<path d="M54.34 18.69L58.45 24.8L57.62 25.36L54 20L50.17 22.58L53.79 27.96L52.96 28.51L48.85 22.4L54.34 18.69Z" fill="white"/>
<path d="M62.34 14.07L65.94 20.5L65.07 20.98L61.9 15.33L58.82 17.05L59.63 18.69C60.1919 19.7339 60.6155 20.8466 60.89 22C60.9972 22.3359 60.985 22.6985 60.8557 23.0265C60.7263 23.3545 60.4876 23.6277 60.18 23.8C59.9695 23.9144 59.744 23.9986 59.51 24.05L59.15 23.28C59.2661 23.2542 59.3774 23.2103 59.48 23.15C59.641 23.0666 59.7742 22.9379 59.863 22.7797C59.9519 22.6216 59.9925 22.441 59.98 22.26C59.9679 21.8013 59.866 21.3495 59.68 20.93C59.48 20.4367 59.19 19.8067 58.81 19.04L57.64 16.68L62.34 14.07Z" fill="white"/>
<path d="M69.13 18.46C68.4874 18.4072 67.8717 18.1789 67.35 17.8C66.8072 17.3984 66.3749 16.8659 66.0934 16.2522C65.8118 15.6384 65.6903 14.9634 65.74 14.29C65.791 13.6501 66.0196 13.0371 66.4 12.52C66.8027 11.988 67.3321 11.5651 67.94 11.29C68.5433 10.9996 69.2121 10.8721 69.88 10.92C70.5217 10.9694 71.1375 11.1942 71.66 11.57C72.1947 11.979 72.621 12.5128 72.9017 13.1247C73.1823 13.7366 73.3088 14.4079 73.27 15.08C73.2224 15.719 72.9973 16.3321 72.62 16.85C72.2153 17.3844 71.6851 17.8109 71.0764 18.0917C70.4677 18.3725 69.7992 18.499 69.13 18.46ZM71.84 16.38C72.1146 15.9883 72.2739 15.5276 72.3 15.05C72.3204 14.5301 72.2176 14.0126 72 13.54C71.7748 13.0583 71.4307 12.6418 71 12.33C70.6211 12.0366 70.167 11.8563 69.69 11.81C69.2067 11.7913 68.726 11.8898 68.289 12.097C67.8519 12.3042 67.4714 12.614 67.18 13C66.9023 13.3908 66.7395 13.8515 66.71 14.33C66.6844 14.8503 66.7874 15.369 67.01 15.84C67.2375 16.3035 67.578 16.7024 68 17C68.3789 17.2934 68.833 17.4737 69.31 17.52C69.8007 17.5481 70.2908 17.4552 70.7372 17.2494C71.1836 17.0436 71.5726 16.7314 71.87 16.34L71.84 16.38Z" fill="white"/>
<path d="M81.5 6L84 13L83.14 13.31L81.14 7.82L80 13.43L79.58 13.58L75.11 9.92L77.11 15.42L76.25 15.73L73.78 8.79L74.78 8.45L79.5 12.4L80.71 6.34L81.5 6Z" fill="white"/>
<path d="M94.44 2.73999L92.69 11.6C92.608 12.2038 92.3702 12.7759 92 13.26C91.6684 13.6432 91.2176 13.9038 90.72 14C90.3927 14.0783 90.0543 14.0986 89.72 14.06C89.4052 14.0189 89.1022 13.9134 88.83 13.75L89.12 12.92C89.3292 13.0559 89.5637 13.1481 89.8094 13.1911C90.0552 13.2341 90.3071 13.2269 90.55 13.17C90.8563 13.1076 91.1317 12.9416 91.33 12.7C91.5583 12.3826 91.709 12.0162 91.77 11.63L91.92 10.86L87.08 4.41999L88.08 4.18999L92.17 9.67999L93.48 2.99999L94.44 2.73999Z" fill="white"/>
<path d="M98.29 9.16001C97.6804 8.94624 97.1456 8.56076 96.75 8.05001C96.3243 7.51988 96.0512 6.88375 95.96 6.21001C95.842 5.53916 95.9041 4.84902 96.14 4.21001C96.3689 3.60861 96.76 3.08246 97.27 2.69001C97.7787 2.31008 98.3674 2.05133 98.9913 1.93348C99.6152 1.81564 100.258 1.84181 100.87 2.01001C101.388 2.17507 101.85 2.48366 102.2 2.90001L101.55 3.51001C101.279 3.20799 100.934 2.98073 100.55 2.85001C100.106 2.72728 99.6392 2.70854 99.1866 2.79525C98.734 2.88196 98.3074 3.07179 97.94 3.35001C97.5597 3.64454 97.2745 4.04449 97.12 4.50001C96.9463 4.99407 96.9049 5.525 97 6.04001C97.0701 6.55784 97.2696 7.04964 97.58 7.47001C97.8757 7.84934 98.2701 8.13996 98.72 8.31001C99.194 8.47978 99.7037 8.52455 100.2 8.44001C100.615 8.37664 101.011 8.22303 101.36 7.99001C101.709 7.73715 101.98 7.3904 102.14 6.99001L102.96 7.37001C102.755 7.87761 102.408 8.31516 101.96 8.63001C101.475 8.96013 100.921 9.17557 100.34 9.26001C99.6599 9.40885 98.9524 9.37434 98.29 9.16001Z" fill="white"/>
<path d="M109.31 1.71996L106.53 1.97997L107.14 8.43997L106.14 8.52997L105.53 2.06997L102.76 2.32997L102.68 1.44997L109.22 0.839966L109.31 1.71996Z" fill="white"/>
<path d="M115.74 1.28998C116.018 1.564 116.236 1.8934 116.379 2.25686C116.522 2.62033 116.587 3.00977 116.57 3.39998L116.7 7.99998H115.75V6.84998C115.516 7.25176 115.168 7.5753 114.75 7.77998C114.275 8.01714 113.751 8.14039 113.22 8.13998C112.512 8.20089 111.805 8.01351 111.22 7.60998C110.98 7.4336 110.786 7.20309 110.652 6.93721C110.518 6.67134 110.449 6.37762 110.45 6.07998C110.429 5.79266 110.477 5.50453 110.588 5.23879C110.699 4.97304 110.871 4.73711 111.09 4.54998C111.706 4.09285 112.464 3.86638 113.23 3.90998L115.57 3.84998V3.39998C115.576 3.14004 115.528 2.88167 115.43 2.64086C115.332 2.40005 115.186 2.18192 115 1.99998C114.558 1.65377 113.999 1.49247 113.44 1.54998C112.981 1.55758 112.526 1.64908 112.1 1.81998C111.698 1.97232 111.328 2.19968 111.01 2.48998L110.54 1.75998C110.928 1.4172 111.38 1.1554 111.87 0.989981C112.396 0.798848 112.95 0.694162 113.51 0.679982C114.304 0.587099 115.104 0.805753 115.74 1.28998ZM114.74 6.91998C115.139 6.63985 115.44 6.24095 115.6 5.77998V4.57998L113.29 4.63998C112.03 4.63998 111.41 5.12998 111.44 6.00998C111.436 6.20681 111.482 6.40142 111.573 6.57608C111.664 6.75074 111.797 6.8999 111.96 7.00998C112.37 7.27079 112.856 7.38695 113.34 7.33998C113.851 7.34814 114.353 7.20175 114.78 6.91998H114.74Z" fill="white"/>
<path d="M119.54 0.619995L120.54 0.669994L120.38 3.91999L125.01 4.14999L125.17 0.889994L126.17 0.939995L125.81 8.29999L124.81 8.24999L125 4.99999L120.37 4.77999L120.17 7.99999L119.17 7.95L119.54 0.619995Z" fill="white"/>
<path d="M129.57 8.27997C129.057 7.89157 128.657 7.37391 128.41 6.77997C128.171 6.14978 128.092 5.4704 128.179 4.80223C128.267 4.13405 128.518 3.49778 128.91 2.94997C129.295 2.43184 129.818 2.03315 130.42 1.79997C131.056 1.55251 131.746 1.47663 132.42 1.57997C133.086 1.65536 133.72 1.90358 134.26 2.29997C134.774 2.68007 135.173 3.19605 135.41 3.78997C135.649 4.42015 135.728 5.09953 135.641 5.76771C135.553 6.43588 135.302 7.07216 134.91 7.61997C134.529 8.13991 134.009 8.54194 133.41 8.77997C132.775 9.0308 132.085 9.11013 131.41 9.00997C130.745 8.92464 130.112 8.67362 129.57 8.27997ZM133 7.99997C133.444 7.81863 133.826 7.51307 134.1 7.11997C134.4 6.69397 134.586 6.19821 134.64 5.67997C134.72 5.16547 134.668 4.63919 134.49 4.14997C134.33 3.69993 134.042 3.3069 133.66 3.01997C133.265 2.72423 132.8 2.53795 132.31 2.47997C131.823 2.40777 131.326 2.46645 130.87 2.64997C130.425 2.83353 130.04 3.13845 129.76 3.52997C129.46 3.95596 129.274 4.45172 129.22 4.96997C129.141 5.48447 129.192 6.01065 129.37 6.49997C129.537 6.94879 129.828 7.34076 130.21 7.62997C130.606 7.92406 131.071 8.11016 131.56 8.16997C132.047 8.24217 132.544 8.18349 133 7.99997Z" fill="white"/>
<path d="M143.51 9.10002C143.464 9.38371 143.348 9.65163 143.174 9.8801C142.999 10.1086 142.771 10.2906 142.51 10.41C141.804 10.6584 141.038 10.6794 140.32 10.47L137 9.78002L138.52 2.58002L141.7 3.25002C142.384 3.35549 143.021 3.66179 143.53 4.13002C143.72 4.32865 143.858 4.57198 143.929 4.8376C144.001 5.10322 144.005 5.3826 143.94 5.65002C143.867 6.01388 143.678 6.34401 143.4 6.59002C143.114 6.82665 142.768 6.979 142.4 7.03002C142.814 7.16804 143.16 7.45938 143.367 7.84429C143.573 8.22919 143.624 8.67849 143.51 9.10002ZM141.89 9.69002C142.068 9.62252 142.225 9.50774 142.343 9.35799C142.461 9.20825 142.536 9.02918 142.56 8.84002C142.603 8.66701 142.605 8.48621 142.565 8.3124C142.525 8.1386 142.445 7.97673 142.33 7.84002C141.975 7.52096 141.533 7.31547 141.06 7.25002L138.67 6.75002L138.14 9.26002L140.43 9.74002C140.912 9.86211 141.418 9.84477 141.89 9.69002ZM138.83 6.00002L140.99 6.46002C141.434 6.58467 141.906 6.56718 142.34 6.41002C142.507 6.33827 142.653 6.22549 142.765 6.08214C142.877 5.9388 142.951 5.76952 142.98 5.59002C143.027 5.41506 143.027 5.23104 142.982 5.05582C142.936 4.8806 142.846 4.72014 142.72 4.59002C142.38 4.28731 141.96 4.08936 141.51 4.02002L139.34 3.56002L138.83 6.00002Z" fill="white"/>
<path d="M153 6.23L150.93 13.29L150 13L151.83 6.78L148.44 5.78L147.84 7.5C147.482 8.63869 146.974 9.72483 146.33 10.73C146.165 11.0411 145.898 11.2863 145.574 11.4246C145.25 11.5629 144.889 11.586 144.55 11.49C144.32 11.4184 144.101 11.314 143.9 11.18L144.2 10.38C144.301 10.4438 144.408 10.4974 144.52 10.54C144.695 10.5906 144.881 10.5922 145.058 10.5446C145.234 10.497 145.394 10.402 145.52 10.27C145.833 9.93364 146.084 9.54422 146.26 9.12C146.47 8.63 146.72 7.99 147.01 7.18L147.87 4.69L153 6.23Z" fill="white"/>
<path d="M160.66 13.28L154.9 11.08C154.789 11.4156 154.747 11.7701 154.776 12.1223C154.805 12.4745 154.905 12.8173 155.07 13.13C155.42 13.7787 156.002 14.2715 156.7 14.51C157.101 14.6682 157.529 14.743 157.96 14.73C158.376 14.7137 158.782 14.6043 159.15 14.41L159.44 15.21C158.996 15.4659 158.493 15.6037 157.98 15.61C157.426 15.6241 156.875 15.5254 156.36 15.32C155.698 15.0898 155.109 14.6898 154.65 14.16C154.23 13.6637 153.953 13.062 153.85 12.42C153.75 11.7447 153.83 11.0551 154.08 10.42C154.312 9.78681 154.701 9.22265 155.21 8.78C155.685 8.36682 156.268 8.09642 156.89 8C157.527 7.90178 158.18 7.97423 158.78 8.21C159.384 8.43011 159.916 8.81037 160.32 9.31C160.695 9.8015 160.93 10.3856 161 11C161.086 11.6779 160.996 12.3665 160.74 13L160.66 13.28ZM156.56 9C155.94 9.2591 155.443 9.74573 155.17 10.36L160.05 12.22C160.248 11.5752 160.198 10.8799 159.91 10.27C159.613 9.67588 159.097 9.22048 158.47 9C157.858 8.74938 157.172 8.74938 156.56 9Z" fill="white"/>
<path d="M164.5 10.59L165.39 11.02L164 14L168.18 16L169.58 13L170.47 13.43L167.3 20.07L166.41 19.64L167.8 16.71L163.62 14.71L162.22 17.64L161.33 17.21L164.5 10.59Z" fill="white"/>
<path d="M173.33 15L174.19 15.5L172.54 18.32L176.54 20.66L178.19 17.84L179.05 18.35L175.33 24.7L174.47 24.2L176.11 21.4L172.11 19.06L170.47 21.86L169.61 21.36L173.33 15Z" fill="white"/>
<path d="M178.7 26.4C178.422 25.8218 178.308 25.1785 178.37 24.54C178.448 23.8701 178.69 23.23 179.076 22.6768C179.462 22.1236 179.978 21.6746 180.58 21.37C181.163 21.0962 181.809 20.9856 182.45 21.05C183.113 21.1339 183.745 21.3781 184.292 21.7614C184.839 22.1448 185.285 22.6557 185.59 23.25C185.877 23.8252 185.992 24.4712 185.92 25.11C185.85 25.7814 185.605 26.4228 185.21 26.97C184.832 27.5291 184.315 27.9805 183.71 28.28C183.129 28.5604 182.481 28.6713 181.84 28.6C181.175 28.5357 180.54 28.2939 180 27.9C179.444 27.5215 178.996 27.0045 178.7 26.4ZM181.86 27.69C182.336 27.7306 182.814 27.6371 183.24 27.42C183.695 27.1835 184.086 26.8404 184.38 26.42C184.707 26.0091 184.921 25.5195 185 25C185.064 24.5251 184.987 24.042 184.78 23.61C184.556 23.1597 184.209 22.7819 183.78 22.52C183.393 22.2251 182.931 22.0453 182.446 22.0011C181.961 21.9569 181.474 22.0501 181.04 22.27C180.579 22.5017 180.184 22.8456 179.89 23.27C179.585 23.6926 179.39 24.1837 179.32 24.7C179.265 25.178 179.341 25.6618 179.54 26.1C179.756 26.5426 180.084 26.9216 180.49 27.2C180.894 27.4838 181.368 27.6531 181.86 27.69Z" fill="white"/>
<path d="M192.75 29.45L189.47 26.8L185.39 31.8L184.62 31.17L189.25 25.45L193.3 28.72L192.75 29.45Z" fill="white"/>
<path d="M190.5 35.58C190.304 34.9686 190.276 34.3157 190.42 33.69C190.595 33.0295 190.94 32.4262 191.42 31.94C191.847 31.4501 192.39 31.0752 193 30.85C193.612 30.6554 194.267 30.6346 194.89 30.79C195.538 30.9574 196.134 31.2824 196.626 31.736C197.118 32.1896 197.491 32.7578 197.71 33.39C197.916 33.9961 197.943 34.6485 197.79 35.27C197.615 35.9305 197.27 36.5338 196.79 37.02C196.338 37.5226 195.762 37.8984 195.12 38.11C194.51 38.3112 193.855 38.3389 193.23 38.19C192.581 38.0224 191.983 37.6963 191.491 37.2407C190.999 36.7852 190.627 36.2145 190.41 35.58H190.5ZM193.5 37.29C193.966 37.3899 194.451 37.3587 194.9 37.2C195.379 37.0107 195.809 36.7139 196.156 36.3325C196.502 35.9511 196.757 35.4952 196.9 35C197.035 34.5397 197.035 34.0502 196.9 33.59C196.748 33.1239 196.476 32.7063 196.11 32.38C195.753 32.0376 195.311 31.7961 194.83 31.68C194.362 31.5766 193.874 31.6042 193.42 31.76C192.93 31.9387 192.491 32.2339 192.14 32.62C191.78 32.9956 191.522 33.4568 191.39 33.96C191.26 34.4244 191.26 34.9156 191.39 35.38C191.542 35.8461 191.814 36.2637 192.18 36.59C192.537 36.9323 192.979 37.1739 193.46 37.29H193.5Z" fill="white"/>
<path d="M199.23 44.29C199.103 43.6597 199.148 43.0069 199.36 42.4C199.601 41.7703 199.993 41.2099 200.502 40.7685C201.012 40.3271 201.622 40.0184 202.28 39.87C202.912 39.7436 203.566 39.7955 204.17 40.02C204.791 40.2651 205.344 40.6568 205.781 41.1618C206.218 41.6668 206.527 42.27 206.68 42.92C206.812 43.5466 206.767 44.1975 206.55 44.8C206.309 45.4297 205.917 45.9901 205.408 46.4315C204.898 46.8729 204.288 47.1815 203.63 47.33C202.999 47.4591 202.345 47.4106 201.74 47.19C201.111 46.9602 200.553 46.5708 200.12 46.06C199.676 45.5562 199.37 44.9466 199.23 44.29ZM201.98 46.29C202.43 46.448 202.916 46.4723 203.38 46.36C203.89 46.2303 204.361 45.9813 204.756 45.6336C205.151 45.2859 205.457 44.8493 205.65 44.36C205.827 43.9155 205.872 43.4294 205.78 42.96C205.675 42.4798 205.452 42.0334 205.13 41.6614C204.809 41.2894 204.4 41.0036 203.94 40.83C203.486 40.6765 202.997 40.6523 202.53 40.76C202.02 40.8757 201.549 41.1202 201.16 41.47C200.762 41.8063 200.453 42.2357 200.26 42.72C200.092 43.1667 200.05 43.6512 200.14 44.12C200.238 44.6133 200.46 45.0734 200.785 45.4567C201.111 45.84 201.529 46.1337 202 46.31L201.98 46.29Z" fill="white"/>
<path d="M212.44 50.74C212.51 51.3423 212.409 51.952 212.15 52.5C211.856 53.0884 211.424 53.5973 210.891 53.9837C210.359 54.3701 209.741 54.6227 209.09 54.72C208.468 54.7998 207.836 54.6992 207.27 54.43C206.663 54.1438 206.142 53.7023 205.76 53.15C205.415 52.7308 205.177 52.2349 205.063 51.7042C204.95 51.1734 204.966 50.6233 205.11 50.1C205.52 48.9007 206.319 47.8728 207.38 47.18C208.359 46.3601 209.568 45.864 210.84 45.76C211.96 45.7996 213.027 46.2478 213.84 47.02L216.41 49.24L215.78 49.91L213.36 47.83C212.721 47.2002 211.891 46.7994 211 46.69C210.058 46.6949 209.144 47.0114 208.4 47.59C209.03 47.4801 209.679 47.5547 210.268 47.8048C210.857 48.055 211.361 48.47 211.72 49C212.105 49.5087 212.353 50.1079 212.44 50.74ZM207.54 53.58C207.97 53.7697 208.446 53.8321 208.91 53.76C209.411 53.6793 209.885 53.4767 210.29 53.17C210.714 52.893 211.059 52.5105 211.29 52.06C211.486 51.6458 211.562 51.1852 211.51 50.73C211.438 50.2494 211.25 49.7935 210.962 49.4015C210.675 49.0096 210.297 48.6933 209.86 48.48C209.441 48.2892 208.977 48.2199 208.52 48.28C208.028 48.3491 207.563 48.5456 207.17 48.85C206.745 49.1381 206.4 49.5306 206.17 49.99C205.952 50.4116 205.869 50.8896 205.93 51.36C205.981 51.8406 206.165 52.2976 206.46 52.68C206.729 53.0749 207.103 53.3867 207.54 53.58Z" fill="white"/>
<path d="M218 58.9C218.026 59.5326 217.873 60.1598 217.56 60.71C217.221 61.3005 216.736 61.7931 216.15 62.14C215.572 62.5049 214.912 62.7182 214.23 62.76C213.595 62.787 212.966 62.6382 212.41 62.33C211.833 62.0153 211.348 61.5572 211 61C210.7 60.5266 210.518 59.9882 210.47 59.43C210.427 58.8849 210.535 58.3386 210.78 57.85L207.28 60L206.76 59.15L215.36 53.88L215.85 54.69L214.61 55.45C215.163 55.4459 215.706 55.5947 216.18 55.88C216.677 56.177 217.093 56.5928 217.39 57.09C217.743 57.6319 217.953 58.2548 218 58.9ZM212.78 61.46C213.203 61.6889 213.68 61.7962 214.16 61.77C214.682 61.733 215.187 61.5682 215.63 61.29C216.077 61.0292 216.449 60.6572 216.71 60.21C216.954 59.7919 217.075 59.3137 217.06 58.83C217.047 58.3405 216.902 57.8636 216.64 57.45C216.389 57.0265 216.025 56.6805 215.59 56.45C215.172 56.2208 214.696 56.1167 214.22 56.15C213.701 56.1775 213.198 56.3395 212.76 56.62C212.31 56.8847 211.935 57.2599 211.67 57.71C211.426 58.121 211.301 58.592 211.31 59.07C211.331 59.5641 211.483 60.0437 211.75 60.46C211.991 60.8742 212.336 61.2188 212.75 61.46H212.78Z" fill="white"/>
<path d="M222 67C221.872 67.3684 221.668 67.7056 221.401 67.9899C221.134 68.2742 220.81 68.4991 220.45 68.65L216.38 70.72L215.95 69.87L216.95 69.35C216.498 69.3252 216.065 69.161 215.71 68.88C215.285 68.5534 214.943 68.1323 214.71 67.65C214.358 67.0468 214.227 66.3394 214.34 65.65C214.4 65.3636 214.523 65.094 214.699 64.8602C214.875 64.6263 215.1 64.434 215.358 64.2967C215.617 64.1593 215.902 64.0804 216.195 64.0654C216.487 64.0504 216.779 64.0998 217.05 64.21C217.727 64.5748 218.254 65.1659 218.54 65.88L219.61 67.96L220.01 67.76C220.245 67.6504 220.456 67.4935 220.628 67.2991C220.8 67.1047 220.93 66.8769 221.01 66.63C221.137 66.08 221.044 65.5021 220.75 65.02C220.545 64.6096 220.271 64.2375 219.94 63.92C219.629 63.6263 219.266 63.3924 218.87 63.23L219.32 62.49C219.795 62.6921 220.226 62.9841 220.59 63.35C220.995 63.7457 221.333 64.2051 221.59 64.71C222.021 65.3904 222.168 66.2124 222 67ZM216.5 68.54C216.923 68.7843 217.414 68.8859 217.9 68.83L218.97 68.29L217.97 66.23C217.39 65.11 216.72 64.74 215.97 65.14C215.791 65.2236 215.635 65.3491 215.515 65.5057C215.395 65.6624 215.314 65.8456 215.28 66.04C215.226 66.5236 215.331 67.0118 215.58 67.43C215.778 67.8642 216.093 68.2347 216.49 68.5L216.5 68.54Z" fill="white"/>
<path d="M222.17 76C222.007 76.3717 221.705 76.6656 221.33 76.82C220.935 76.9755 220.495 76.9755 220.1 76.82C219.644 76.6649 219.237 76.3925 218.92 76.03C218.536 75.6095 218.228 75.1256 218.01 74.6C217.802 74.1124 217.668 73.5969 217.61 73.07C217.546 72.5682 217.58 72.0588 217.71 71.57H218.52C218.422 72.0028 218.395 72.4486 218.44 72.89C218.487 73.3477 218.601 73.7959 218.78 74.22C218.983 74.7646 219.328 75.2447 219.78 75.61C219.946 75.7513 220.148 75.8438 220.363 75.8773C220.578 75.9108 220.799 75.8841 221 75.8C221.174 75.7314 221.325 75.6154 221.437 75.4651C221.548 75.3149 221.615 75.1364 221.63 74.95C221.679 74.4444 221.585 73.9352 221.36 73.48L220.87 72.32L221.54 72.04L222.01 73.14C222.172 73.575 222.453 73.956 222.82 74.24C222.959 74.35 223.125 74.4209 223.301 74.4455C223.477 74.4701 223.656 74.4475 223.82 74.38C224 74.3085 224.155 74.1864 224.267 74.0284C224.379 73.8704 224.442 73.6834 224.45 73.49C224.496 72.9781 224.403 72.4631 224.18 72C223.848 71.2475 223.341 70.5857 222.7 70.07L223.3 69.51C224.04 70.1116 224.624 70.8836 225 71.76C225.209 72.2316 225.334 72.7357 225.37 73.25C225.406 73.6787 225.33 74.1095 225.15 74.5C224.988 74.8446 224.702 75.1158 224.35 75.26C224.006 75.3954 223.624 75.3954 223.28 75.26C222.89 75.1148 222.546 74.87 222.28 74.55C222.399 75.0327 222.36 75.5408 222.17 76Z" fill="white"/>
<path d="M223.42 86.51L220.85 87.38L220.55 86.5L222.3 85.9L220.14 79.52L227.14 77.16L227.46 78.1L221.31 80.19L222.75 84.44L228.9 82.36L229.22 83.3L223 85.39L223.42 86.51Z" fill="white"/>
<path d="M230.68 91.42C230.473 91.7535 230.197 92.0392 229.872 92.2582C229.546 92.4771 229.177 92.6243 228.79 92.69L224.37 93.81L224.14 92.88L225.25 92.6C224.815 92.4734 224.428 92.219 224.14 91.87C223.803 91.4531 223.566 90.9636 223.45 90.44C223.25 89.7827 223.282 89.0767 223.54 88.44C223.662 88.1686 223.842 87.9278 224.069 87.735C224.295 87.5423 224.562 87.4025 224.85 87.3259C225.137 87.2493 225.438 87.2377 225.73 87.292C226.023 87.3464 226.299 87.4652 226.54 87.64C227.122 88.1615 227.507 88.8678 227.63 89.64L228.2 91.91L228.63 91.8C228.892 91.7512 229.141 91.6486 229.361 91.4989C229.581 91.3492 229.768 91.1555 229.91 90.93C230.15 90.4194 230.186 89.8362 230.01 89.3C229.9 88.8549 229.714 88.4321 229.46 88.05C229.221 87.695 228.92 87.3865 228.57 87.14L229.18 86.52C229.581 86.8269 229.92 87.2069 230.18 87.64C230.479 88.1144 230.699 88.6346 230.83 89.18C231.063 89.9191 231.009 90.7185 230.68 91.42ZM224.97 91.71C225.331 92.0378 225.786 92.2442 226.27 92.3L227.44 92.01L226.87 89.77C226.57 88.55 225.99 88.04 225.14 88.26C224.947 88.2986 224.766 88.3845 224.614 88.5102C224.462 88.6359 224.344 88.7973 224.27 88.98C224.112 89.4402 224.112 89.9398 224.27 90.4C224.38 90.8985 224.634 91.3538 225 91.71H224.97Z" fill="white"/>
</svg>
