<svg width="180" height="73" viewBox="0 0 180 73" fill="none" xmlns="http://www.w3.org/2000/svg">
<path d="M173.685 6.37778C173.278 6.5684 172.815 6.59894 172.386 6.46333C172.1 6.40642 171.832 6.27928 171.606 6.09331C171.381 5.90734 171.205 5.66835 171.095 5.39778C170.863 4.70632 170.863 3.95812 171.095 3.26666L171.951 0L179.324 1.94444L178.546 5.00889C178.415 5.66728 178.077 6.26666 177.582 6.72C177.367 6.89333 177.112 7.01098 176.841 7.06253C176.57 7.11408 176.29 7.09795 176.026 7.01556C175.649 6.92855 175.311 6.72105 175.062 6.42445C174.828 6.12128 174.687 5.75635 174.657 5.37445C174.458 5.81041 174.115 6.16461 173.685 6.37778ZM172.643 5.70889C173.566 5.95778 174.196 5.43926 174.533 4.15333L175.194 1.65667L172.379 0.878893L171.725 3.43C171.383 4.69778 171.725 5.46 172.643 5.70889ZM175.754 1.82L175.155 4.06779C175.001 4.52439 175.001 5.01896 175.155 5.47556C175.233 5.65938 175.354 5.82142 175.509 5.94751C175.663 6.07361 175.846 6.15991 176.042 6.19889C176.233 6.2604 176.436 6.27484 176.634 6.24099C176.831 6.20713 177.018 6.12598 177.177 6.00445C177.535 5.68386 177.778 5.25501 177.87 4.78334L178.461 2.53556L175.754 1.82Z" fill="white"/>
<path d="M173.335 14.7234L173.071 15.4545L167.697 13.4711L167.961 12.7478L173.335 14.7234ZM171.515 12.39C171.294 12.514 171.046 12.5842 170.792 12.595C170.538 12.6058 170.285 12.5569 170.053 12.4522C169.798 12.3765 169.565 12.241 169.373 12.057C169.181 11.873 169.035 11.6459 168.949 11.3945C168.787 10.7967 168.839 10.1611 169.097 9.59779L169.874 7.47446L175.249 9.45779L174.984 10.1811L173.102 9.4889L172.519 11.0445C172.349 11.6054 171.996 12.093 171.515 12.4289V12.39ZM169.548 10.9978C169.612 11.1704 169.716 11.3255 169.851 11.451C169.986 11.5766 170.149 11.669 170.325 11.7211C170.488 11.7928 170.664 11.8252 170.841 11.8157C171.018 11.8063 171.191 11.7552 171.344 11.6667C171.682 11.4072 171.93 11.048 172.052 10.64L172.581 9.28668L170.17 8.44668L169.649 9.80002C169.475 10.1887 169.439 10.625 169.548 11.0367V10.9978Z" fill="white"/>
<path d="M165.091 20.6578L163.232 19.7633L163.551 19.1022L164.795 19.7011L166.996 15.0344L165.744 14.4433L166.063 13.7822L167.922 14.6611L167.782 14.9645C167.634 15.3145 167.782 15.6722 168.21 16.03C168.819 16.5005 169.47 16.9145 170.154 17.2667L171.85 18.1611L170.037 21.9722L165.503 19.8489L165.091 20.6578ZM168.085 16.8778C167.719 16.6627 167.443 16.3231 167.307 15.9211L165.752 19.1489L169.695 21.0233L170.877 18.5344L169.757 17.9278C169.177 17.6159 168.618 17.2651 168.085 16.8778Z" fill="white"/>
<path d="M166.499 27.3544C166.203 27.43 165.895 27.4421 165.595 27.3898C165.295 27.3375 165.009 27.2221 164.756 27.0511L161.645 25.2856L162.011 24.64L162.789 25.0833C162.612 24.7772 162.536 24.4237 162.571 24.0722C162.602 23.6583 162.733 23.258 162.952 22.9056C163.195 22.4165 163.603 22.0284 164.103 21.8089C164.318 21.7227 164.55 21.6876 164.781 21.7065C165.012 21.7254 165.235 21.7977 165.433 21.9178C165.636 22.02 165.811 22.1682 165.946 22.3505C166.082 22.5328 166.172 22.7442 166.211 22.9678C166.263 23.5623 166.106 24.1564 165.767 24.6478L164.857 26.2033L165.161 26.3822C165.333 26.4958 165.527 26.5724 165.731 26.6072C165.934 26.6421 166.143 26.6343 166.343 26.5845C166.754 26.4294 167.091 26.1234 167.284 25.7289C167.462 25.4174 167.585 25.0782 167.65 24.7256C167.716 24.3996 167.716 24.0637 167.65 23.7378H168.326C168.403 24.1308 168.403 24.5348 168.326 24.9278C168.238 25.355 168.08 25.7648 167.86 26.1411C167.584 26.7092 167.095 27.1452 166.499 27.3544ZM163.17 24.43C163.195 24.8095 163.339 25.1714 163.582 25.4645L164.36 25.9311L165.254 24.3756C165.744 23.5278 165.69 22.9289 165.099 22.5945C164.969 22.5125 164.82 22.464 164.667 22.4531C164.514 22.4423 164.36 22.4694 164.22 22.5322C163.883 22.7002 163.61 22.9732 163.442 23.31C163.247 23.6502 163.153 24.0385 163.17 24.43Z" fill="white"/>
<path d="M160.059 32.5345L162.742 28.5678C162.512 28.4248 162.256 28.3298 161.989 28.2883C161.721 28.2469 161.449 28.2599 161.186 28.3267C160.634 28.476 160.159 28.8289 159.856 29.3145C159.662 29.5898 159.527 29.9022 159.46 30.2322C159.39 30.5473 159.39 30.8738 159.46 31.1889L158.806 31.2667C158.694 30.8825 158.677 30.4763 158.76 30.0845C158.85 29.6638 159.022 29.2649 159.265 28.91C159.565 28.4559 159.975 28.0842 160.455 27.8289C160.903 27.5972 161.407 27.4948 161.91 27.5333C162.436 27.5752 162.941 27.7579 163.372 28.0622C163.81 28.3473 164.166 28.7413 164.406 29.2056C164.637 29.6371 164.74 30.1255 164.702 30.6133C164.652 31.1055 164.479 31.5771 164.199 31.9849C163.919 32.3927 163.541 32.7234 163.1 32.9467C162.662 33.1573 162.175 33.2434 161.692 33.1956C161.17 33.1387 160.672 32.9485 160.245 32.6433L160.059 32.5345ZM164.01 30.2011C163.918 29.6876 163.641 29.2254 163.232 28.9022L160.953 32.27C161.405 32.538 161.941 32.6242 162.454 32.5111C162.959 32.396 163.398 32.0856 163.675 31.6478C163.952 31.2141 164.05 30.6898 163.947 30.1856L164.01 30.2011Z" fill="white"/>
<path d="M157.352 40.8956L152.911 37.2867L153.354 36.7345L156.87 39.5889L155.392 35.3734L155.61 35.1011L160.059 35.7311L156.535 32.8611L156.979 32.3167L161.42 35.9256L160.93 36.5322L156.193 35.8167L157.842 40.3356L157.352 40.8956Z" fill="white"/>
<path d="M146.059 45.1811L144.635 43.6956L145.156 43.19L146.121 44.1856L149.815 40.6311L148.851 39.6356L149.38 39.13L150.803 40.6156L150.57 40.8411C150.313 41.1211 150.321 41.51 150.57 41.9922C150.972 42.649 151.436 43.2662 151.954 43.8356L153.23 45.2745L150.181 48.1989L146.681 44.5589L146.059 45.1811ZM150.196 42.7078C149.939 42.3779 149.81 41.9665 149.831 41.5489L147.264 44.03L150.29 47.1411L152.273 45.2278L151.433 44.2633C150.974 43.7773 150.553 43.2573 150.173 42.7078H150.196Z" fill="white"/>
<path d="M148.174 50.0111L147.575 50.4933L144.698 46.97L144.612 52.9122L144.075 53.34L140.459 48.8989L141.058 48.4167L143.935 51.9478L144.013 46.0056L144.55 45.57L148.174 50.0111Z" fill="white"/>
<path d="M137.791 57.7656L134.563 53.0289L135.201 52.5933L138.04 56.7622L141.011 54.7322L138.164 50.5711L138.81 50.1356L142.037 54.8644L137.791 57.7656Z" fill="white"/>
<path d="M131.584 61.4055L128.745 56.4278L129.422 56.0467L131.911 60.4255L134.299 59.0722L133.661 57.8044C133.216 56.9888 132.882 56.1179 132.665 55.2144C132.58 54.9538 132.587 54.6718 132.685 54.4156C132.782 54.1594 132.965 53.9444 133.202 53.8067C133.368 53.7149 133.546 53.6468 133.731 53.6044L134.011 54.2111C133.923 54.2349 133.837 54.2661 133.754 54.3044C133.631 54.3712 133.53 54.4719 133.462 54.5946C133.395 54.7173 133.364 54.8569 133.373 54.9967C133.381 55.357 133.463 55.7118 133.614 56.0389C133.77 56.42 133.995 56.91 134.299 57.5089L135.224 59.3367L131.584 61.4055Z" fill="white"/>
<path d="M126.272 58.0378C126.773 58.069 127.255 58.2386 127.664 58.5278C128.093 58.8318 128.431 59.2456 128.644 59.7256C128.881 60.2081 128.983 60.7455 128.94 61.2811C128.904 61.7808 128.729 62.2605 128.434 62.6656C128.127 63.0871 127.714 63.4199 127.236 63.63C126.77 63.8565 126.253 63.9609 125.735 63.9333C125.236 63.9005 124.757 63.728 124.351 63.4356C123.929 63.1231 123.592 62.7107 123.369 62.2355C123.147 61.7604 123.046 61.2373 123.075 60.7133C123.111 60.2148 123.283 59.7358 123.573 59.3289C123.879 58.9071 124.289 58.572 124.763 58.3567C125.228 58.1166 125.75 58.0064 126.272 58.0378ZM124.188 59.6634C123.972 59.9668 123.848 60.3258 123.83 60.6978C123.819 61.1034 123.905 61.5057 124.079 61.8722C124.257 62.2451 124.524 62.5684 124.856 62.8134C125.153 63.0357 125.506 63.1704 125.875 63.2022C126.257 63.2268 126.639 63.1549 126.985 62.9931C127.332 62.8314 127.632 62.585 127.859 62.2767C128.069 61.9679 128.19 61.6074 128.209 61.2345C128.23 60.8288 128.147 60.4245 127.968 60.06C127.792 59.688 127.524 59.3668 127.19 59.1267C126.894 58.8979 126.536 58.7625 126.163 58.7378C125.783 58.7088 125.402 58.7813 125.059 58.9478C124.708 59.1021 124.407 59.3496 124.188 59.6634Z" fill="white"/>
<path d="M116.729 67.7678L114.776 62.3856L115.437 62.1445L116.993 66.3989L117.864 62.0045L118.191 61.8878L121.683 64.7033L120.127 60.4333L120.789 60.1922L122.725 65.5745L121.986 65.8467L118.292 62.7978L117.382 67.5189L116.729 67.7678Z" fill="white"/>
<path d="M106.695 70.3889L108.01 63.49C108.067 63.0189 108.247 62.5711 108.531 62.1911C108.789 61.8931 109.139 61.6904 109.526 61.6156C109.781 61.5555 110.044 61.5371 110.304 61.5611C110.55 61.588 110.787 61.6705 110.996 61.8022L110.779 62.4478C110.616 62.3413 110.434 62.2696 110.242 62.2375C110.051 62.2054 109.855 62.2134 109.666 62.2611C109.429 62.3125 109.216 62.4411 109.06 62.6267C108.887 62.878 108.772 63.1651 108.725 63.4667L108.616 64.0656L112.42 69.0433L111.642 69.23L108.422 64.9833L107.442 70.2178L106.695 70.3889Z" fill="white"/>
<path d="M103.654 65.4189C104.128 65.5867 104.545 65.8829 104.86 66.2745C105.187 66.6898 105.402 67.1828 105.482 67.7056C105.576 68.2267 105.53 68.7633 105.35 69.2611C105.177 69.7318 104.875 70.1442 104.479 70.4511C104.06 70.7773 103.565 70.989 103.04 71.0656C102.589 71.1454 102.126 71.1215 101.686 70.9956C101.279 70.876 100.916 70.6377 100.644 70.3111L101.15 69.8367C101.363 70.0669 101.63 70.2406 101.928 70.3422C102.243 70.4384 102.576 70.4571 102.9 70.3967C103.286 70.3423 103.651 70.1867 103.958 69.9456C104.252 69.7103 104.471 69.3939 104.588 69.0356C104.714 68.6444 104.746 68.2286 104.68 67.8227C104.613 67.4169 104.451 67.0327 104.206 66.7022C103.979 66.4061 103.671 66.1819 103.32 66.0567C102.954 65.9236 102.559 65.8913 102.176 65.9633C101.853 66.014 101.545 66.1362 101.274 66.3211C101.003 66.5178 100.792 66.7875 100.668 67.0989L100.03 66.8111C100.187 66.4132 100.458 66.07 100.808 65.8233C101.182 65.5656 101.61 65.3955 102.06 65.3256C102.59 65.2174 103.14 65.2496 103.654 65.4189Z" fill="white"/>
<path d="M95.1299 71.2678L97.2843 71.05L96.7788 66.0333L97.5565 65.9556L98.0621 70.9722L100.217 70.7545L100.287 71.4389L95.2077 71.9522L95.1299 71.2678Z" fill="white"/>
<path d="M90.121 71.6411C89.9029 71.4285 89.7314 71.1727 89.6176 70.8902C89.5038 70.6076 89.4501 70.3045 89.4599 70L89.3354 66.4533H90.1132V67.34C90.2913 67.0241 90.5631 66.7714 90.891 66.6167C91.2626 66.4294 91.6726 66.3309 92.0888 66.3289C92.6388 66.2752 93.1901 66.4186 93.6443 66.7333C93.8294 66.8706 93.9804 67.0487 94.0856 67.2537C94.1908 67.4587 94.2474 67.6852 94.251 67.9156C94.2655 68.1393 94.229 68.3634 94.1441 68.5709C94.0592 68.7785 93.9282 68.9639 93.761 69.1133C93.2825 69.4717 92.6935 69.6506 92.0966 69.6189L90.2766 69.6811V70.0311C90.2702 70.2377 90.3071 70.4433 90.3848 70.6348C90.4625 70.8263 90.5792 70.9995 90.7277 71.1433C91.0762 71.4089 91.513 71.5313 91.9488 71.4856C92.3065 71.4763 92.6595 71.4026 92.991 71.2678C93.3008 71.1474 93.5856 70.9708 93.831 70.7467L94.1966 71.3067C93.8918 71.5569 93.5439 71.7493 93.1699 71.8745C92.7576 72.0224 92.3244 72.1038 91.8866 72.1156C91.2585 72.197 90.6237 72.0265 90.121 71.6411ZM90.8366 67.2545C90.5238 67.4736 90.2895 67.787 90.1677 68.1489L90.2066 69.0822L92.0032 69.02C92.9832 69.02 93.4577 68.6233 93.4343 67.9467C93.4336 67.7934 93.3957 67.6426 93.3239 67.5071C93.2521 67.3716 93.1485 67.2556 93.0221 67.1689C92.702 66.9688 92.3243 66.8812 91.9488 66.92C91.5535 66.9217 91.1672 67.0379 90.8366 67.2545Z" fill="white"/>
<path d="M87.1886 72.1855H86.4109L86.5198 69.65L82.9186 69.4944L82.8098 72.03H82.032L82.2731 66.3055H83.0509L82.942 68.8333L86.5509 68.9811L86.652 66.4611H87.4298L87.1886 72.1855Z" fill="white"/>
<path d="M79.3331 66.2822C79.735 66.5798 80.0493 66.9801 80.2431 67.4411C80.4417 67.934 80.5087 68.4701 80.4375 68.9967C80.3812 69.5187 80.1851 70.0158 79.8698 70.4355C79.5746 70.8379 79.1734 71.1503 78.7109 71.3378C78.2168 71.5317 77.6813 71.5959 77.1553 71.5244C76.6391 71.465 76.1466 71.2749 75.7242 70.9722C75.3201 70.6789 75.0073 70.2771 74.822 69.8133C74.631 69.3254 74.5644 68.7977 74.6282 68.2777C74.6921 67.7576 74.8843 67.2617 75.1875 66.8344C75.4827 66.4321 75.884 66.1197 76.3464 65.9322C76.838 65.7286 77.3754 65.6614 77.902 65.7378C78.418 65.7929 78.911 65.9804 79.3331 66.2822ZM76.6887 66.5467C76.3449 66.6903 76.0504 66.9308 75.8409 67.2389C75.6133 67.5725 75.4716 67.9573 75.4287 68.3589C75.3716 68.7603 75.4171 69.1697 75.5609 69.5489C75.6871 69.8999 75.9145 70.2057 76.2142 70.4278C76.5224 70.6529 76.8847 70.7924 77.2642 70.8322C77.6433 70.8898 78.031 70.8414 78.3842 70.6922C78.7282 70.5493 79.0248 70.312 79.2398 70.0078C79.4695 69.6695 79.6148 69.2811 79.6635 68.8751C79.7122 68.4692 79.6629 68.0574 79.5198 67.6744C79.3898 67.3276 79.163 67.0252 78.8664 66.8033C78.5593 66.5751 78.1968 66.4328 77.8164 66.3911C77.4334 66.3389 77.0433 66.3927 76.6887 66.5467Z" fill="white"/>
<path d="M68.4988 65.7222C68.5342 65.5004 68.6237 65.2908 68.7594 65.1117C68.895 64.9327 69.0726 64.7898 69.2765 64.6956C69.8244 64.5003 70.4192 64.4786 70.9799 64.6333L73.531 65.1545L72.3877 70.7622L69.9143 70.2645C69.3798 70.1839 68.8814 69.9456 68.4832 69.58C68.243 69.3154 68.1172 68.9666 68.1332 68.6096C68.1492 68.2526 68.3058 67.9164 68.5688 67.6745C68.7882 67.4843 69.0586 67.3626 69.3465 67.3245C69.0277 67.2156 68.7624 66.9893 68.6049 66.6915C68.4473 66.3937 68.4094 66.047 68.4988 65.7222ZM72.1543 68.1178L70.4665 67.7756C70.1229 67.6812 69.7582 67.6975 69.4243 67.8222C69.2908 67.8726 69.1738 67.9588 69.086 68.0713C68.9982 68.1838 68.943 68.3183 68.9265 68.46C68.8911 68.5961 68.8911 68.7391 68.9265 68.8752C68.9619 69.0114 69.0315 69.1362 69.1288 69.2378C69.3981 69.4735 69.7308 69.625 70.0854 69.6733L71.7654 70.0156L72.1543 68.1178ZM69.751 65.2478C69.6136 65.3035 69.4936 65.3948 69.4033 65.5124C69.3131 65.63 69.2559 65.7696 69.2377 65.9167C69.2033 66.0512 69.2017 66.192 69.2328 66.3273C69.2639 66.4626 69.3269 66.5884 69.4165 66.6945C69.6967 66.9396 70.0431 67.0965 70.4121 67.1456L72.271 67.5189L72.6677 65.5667L70.8865 65.2089C70.5116 65.1177 70.1188 65.1311 69.751 65.2478Z" fill="white"/>
<path d="M61.0942 67.9856L62.6498 62.4789L63.3887 62.6889L62.0587 67.5578L64.6953 68.3355L65.162 66.9978C65.4283 66.1065 65.8157 65.256 66.3131 64.47C66.4403 64.2266 66.6472 64.0343 66.8992 63.9252C67.1513 63.8162 67.4331 63.7971 67.6976 63.8711C67.8761 63.9251 68.0462 64.0036 68.2031 64.1044L67.9698 64.7267L67.7209 64.61C67.5837 64.5716 67.4387 64.5716 67.3015 64.61C67.1644 64.6484 67.0404 64.7237 66.9431 64.8278C66.6954 65.086 66.5 65.3898 66.3676 65.7222C66.2042 66.1033 66.0176 66.6089 65.7998 67.2389L65.1387 69.1755L61.0942 67.9856Z" fill="white"/>
<path d="M55.1209 62.5411L59.6086 64.2133C59.6949 63.9523 59.7276 63.6766 59.7049 63.4027C59.6822 63.1287 59.6044 62.8622 59.4764 62.6189C59.183 62.125 58.7178 61.7567 58.1697 61.5845C57.8577 61.4637 57.5241 61.4081 57.1897 61.4211C56.8671 61.4375 56.5516 61.5224 56.2642 61.67L56.0309 61.0556C56.3801 60.8562 56.7723 60.7441 57.1742 60.7289C57.6043 60.719 58.0323 60.793 58.4342 60.9467C58.9489 61.1257 59.4075 61.4369 59.7642 61.8489C60.099 62.2246 60.3178 62.6893 60.3942 63.1867C60.4793 63.7105 60.4229 64.2475 60.2309 64.7422C60.0542 65.2348 59.7543 65.674 59.3597 66.0178C58.9931 66.3421 58.5433 66.5576 58.0609 66.64C57.5658 66.7231 57.0575 66.6693 56.5909 66.4845C56.129 66.3187 55.7205 66.0311 55.4086 65.6522C55.0991 65.2794 54.9022 64.8262 54.8409 64.3456C54.7694 63.8196 54.8336 63.2841 55.0275 62.79L55.1209 62.5411ZM58.3331 65.8234C58.8134 65.6177 59.1972 65.2366 59.4064 64.7578L55.6031 63.3345C55.4518 63.8369 55.4934 64.3777 55.7197 64.8511C55.8335 65.081 55.9917 65.286 56.1853 65.4543C56.3789 65.6225 56.604 65.7506 56.8475 65.8311C57.3215 66.0311 57.855 66.0366 58.3331 65.8467V65.8234Z" fill="white"/>
<path d="M52.1654 64.68L51.4654 64.3534L52.5388 62.02L49.2799 60.4645L48.1988 62.7978L47.4988 62.4711L49.9332 57.2834L50.6332 57.61L49.5599 59.8967L52.8188 61.4522L53.8921 59.1656L54.5921 59.4922L52.1654 64.68Z" fill="white"/>
<path d="M45.2665 61.3278L44.5898 60.9389L45.8576 58.7455L42.7465 56.9411L41.4787 59.1422L40.8098 58.7611L43.6643 53.7911L44.3331 54.18L43.0731 56.3733L46.1843 58.17L47.4443 55.9767L48.1131 56.3655L45.2665 61.3278Z" fill="white"/>
<path d="M41.0587 52.43C41.2802 52.8782 41.3743 53.3786 41.3309 53.8767C41.2861 54.4009 41.1007 54.9034 40.7942 55.3311C40.5023 55.7679 40.0997 56.1195 39.6276 56.35C39.1749 56.5657 38.6722 56.6544 38.1731 56.6067C37.6582 56.5429 37.1663 56.3554 36.7396 56.0601C36.313 55.7649 35.9642 55.3706 35.7231 54.9111C35.4979 54.467 35.4035 53.968 35.4509 53.4722C35.5034 52.9485 35.691 52.4473 35.9953 52.0178C36.2873 51.581 36.6899 51.2294 37.162 50.9989C37.6094 50.7753 38.1111 50.6836 38.6087 50.7345C39.1265 50.7866 39.6221 50.9714 40.0476 51.2711C40.4814 51.5608 40.8304 51.9608 41.0587 52.43ZM38.6009 51.4422C38.2296 51.4096 37.8568 51.4852 37.5276 51.66C37.1741 51.8447 36.8701 52.1114 36.6409 52.4378C36.4062 52.7669 36.2565 53.149 36.2053 53.55C36.159 53.9193 36.2183 54.2942 36.3764 54.6311C36.5523 54.9705 36.8088 55.2614 37.1234 55.4784C37.4381 55.6954 37.8012 55.8318 38.1809 55.8756C38.5517 55.9007 38.9225 55.8255 39.2542 55.6578C39.6121 55.4764 39.9194 55.2092 40.1487 54.88C40.3864 54.5503 40.5338 54.1642 40.5764 53.76C40.6249 53.3899 40.5626 53.0137 40.3976 52.6789C40.2339 52.3337 39.9782 52.0404 39.6587 51.8311C39.3323 51.6147 38.9532 51.4911 38.562 51.4733L38.6009 51.4422Z" fill="white"/>
<path d="M30.0843 50.1667L32.6432 52.2122L35.7543 48.2689L36.3609 48.7511L32.822 53.2078L29.6565 50.68L30.0843 50.1667Z" fill="white"/>
<path d="M31.7953 45.3834C31.9505 45.8581 31.9747 46.366 31.8653 46.8534C31.7391 47.3627 31.4881 47.8327 31.1351 48.2209C30.7821 48.6092 30.3382 48.9037 29.8431 49.0778C29.3676 49.23 28.8598 49.2515 28.3731 49.14C27.8668 49.0163 27.4008 48.7646 27.0198 48.4089C26.6314 48.0597 26.3372 47.6184 26.1642 47.1256C26.005 46.6542 25.9808 46.1478 26.0942 45.6634C26.2205 45.154 26.4714 44.6841 26.8244 44.2958C27.1774 43.9075 27.6214 43.613 28.1165 43.4389C28.5912 43.2838 29.0991 43.2596 29.5865 43.3689C30.0939 43.4896 30.5607 43.7417 30.9398 44.1C31.3316 44.4462 31.6265 44.8885 31.7953 45.3834ZM29.462 44.0767C29.0998 43.9952 28.7219 44.0195 28.3731 44.1467C27.994 44.2891 27.6551 44.5213 27.3853 44.8234C27.1065 45.1193 26.906 45.4803 26.802 45.8734C26.7008 46.2293 26.7008 46.6063 26.802 46.9622C26.9308 47.3231 27.1465 47.6467 27.43 47.9044C27.7135 48.1621 28.0561 48.3461 28.4276 48.44C28.79 48.5177 29.1669 48.4935 29.5165 48.37C29.898 48.2279 30.2395 47.9958 30.512 47.6934C30.7888 47.3971 30.9867 47.0361 31.0876 46.6433C31.1928 46.2854 31.1928 45.9047 31.0876 45.5467C30.9668 45.1836 30.7521 44.8589 30.4653 44.6056C30.1909 44.3461 29.8529 44.1637 29.4853 44.0767H29.462Z" fill="white"/>
<path d="M24.9508 38.6555C25.0591 39.144 25.0295 39.6529 24.8653 40.1255C24.6866 40.6206 24.3852 41.0622 23.9894 41.4091C23.5935 41.756 23.1162 41.9967 22.602 42.1089C22.1146 42.2119 21.6082 42.1769 21.1397 42.0078C20.6533 41.8242 20.2195 41.5239 19.8764 41.1333C19.5333 40.7427 19.2914 40.2738 19.172 39.7678C19.0639 39.2819 19.0935 38.7755 19.2575 38.3055C19.4405 37.8144 19.7422 37.3762 20.1358 37.0301C20.5294 36.684 21.0026 36.4408 21.5131 36.3222C22.0022 36.2164 22.5112 36.2487 22.9831 36.4156C23.4724 36.5943 23.909 36.8931 24.2528 37.2845C24.5966 37.6758 24.8366 38.1473 24.9508 38.6555ZM22.8042 37.1C22.4526 36.9835 22.0755 36.9673 21.7153 37.0533C21.3214 37.1528 20.9581 37.3479 20.6575 37.6211C20.3464 37.8797 20.1078 38.2147 19.9653 38.5933C19.8262 38.9389 19.7937 39.3181 19.872 39.6822C19.9598 40.0523 20.1369 40.3953 20.3877 40.6814C20.6385 40.9674 20.9554 41.1878 21.3108 41.3233C21.6637 41.446 22.0443 41.4649 22.4075 41.3778C22.8011 41.2747 23.1648 41.0801 23.469 40.8097C23.7731 40.5394 24.009 40.201 24.1575 39.8222C24.2921 39.4756 24.3245 39.0977 24.2508 38.7333C24.1679 38.359 23.9918 38.0116 23.739 37.7234C23.4861 37.4351 23.1646 37.2154 22.8042 37.0844V37.1Z" fill="white"/>
<path d="M14.6532 33.7167C14.5903 33.2472 14.6632 32.7694 14.8632 32.34C15.0814 31.8849 15.4104 31.4918 15.8198 31.1967C16.229 30.8779 16.7142 30.6715 17.2276 30.5978C17.7106 30.5328 18.2021 30.6085 18.6432 30.8156C19.1167 31.0394 19.526 31.3792 19.8332 31.8033C20.1025 32.1287 20.2897 32.5141 20.379 32.9269C20.4684 33.3397 20.4572 33.7679 20.3465 34.1756C20.0409 35.1107 19.4265 35.9143 18.6043 36.4545C17.8459 37.0941 16.9091 37.4851 15.921 37.5745C15.0356 37.5586 14.1876 37.2149 13.541 36.61L11.5032 34.9067L11.9932 34.3778L13.8832 35.98C14.3927 36.4805 15.0555 36.7955 15.7654 36.8745C16.497 36.8622 17.2044 36.6109 17.7798 36.1589C17.3052 36.2372 16.8182 36.1834 16.3721 36.0033C15.9101 35.8074 15.5097 35.4903 15.2132 35.0856C14.9092 34.6866 14.716 34.2143 14.6532 33.7167ZM18.441 31.4767C18.1046 31.3359 17.736 31.2901 17.3754 31.3445C16.986 31.4136 16.6183 31.5735 16.3021 31.8111C15.9902 32.0368 15.7391 32.336 15.571 32.6822C15.4194 33.0045 15.3654 33.3641 15.4154 33.7167C15.4642 34.0908 15.6119 34.4452 15.8432 34.7433C16.0666 35.0503 16.3634 35.2963 16.7065 35.4589C17.0333 35.6046 17.3943 35.6558 17.7487 35.6067C18.1307 35.5457 18.4915 35.3906 18.7987 35.1556C19.1269 34.9251 19.3938 34.6181 19.5765 34.2611C19.7388 33.9338 19.801 33.5659 19.7554 33.2033C19.6918 32.8342 19.5276 32.4897 19.281 32.2078C19.0718 31.8929 18.7816 31.6403 18.441 31.4767Z" fill="white"/>
<path d="M10.2975 27.3856C10.2729 26.8926 10.386 26.4024 10.6242 25.97C10.8889 25.5144 11.2632 25.1321 11.713 24.8578C12.1607 24.5694 12.6749 24.4006 13.2064 24.3678C13.6988 24.3388 14.1895 24.4493 14.6219 24.6867C15.0651 24.9399 15.437 25.3011 15.703 25.7367C15.9387 26.1043 16.0827 26.523 16.123 26.9578C16.1533 27.3807 16.0728 27.8043 15.8897 28.1867L18.5964 26.4989L19.0086 27.1522L12.3508 31.2978L11.9619 30.6678L12.9264 30.0689C12.4951 30.0782 12.0698 29.9679 11.6975 29.75C11.3128 29.5197 10.9899 29.1994 10.7564 28.8167C10.4839 28.3866 10.326 27.8939 10.2975 27.3856ZM14.3342 25.3711C14.0062 25.1918 13.6336 25.1108 13.2608 25.1378C12.8573 25.1666 12.4672 25.2948 12.1253 25.5111C11.7771 25.7202 11.4879 26.0147 11.2853 26.3667C11.1028 26.6916 11.0114 27.0597 11.0208 27.4322C11.0361 27.8132 11.1514 28.1834 11.3553 28.5056C11.5526 28.8363 11.8381 29.1056 12.1797 29.2834C12.5076 29.4627 12.8803 29.5437 13.253 29.5167C13.6556 29.4893 14.0442 29.358 14.3808 29.1356C14.7257 28.9392 15.0148 28.6581 15.2208 28.3189C15.4118 27.9971 15.5063 27.6273 15.493 27.2534C15.4737 26.872 15.3557 26.5022 15.1508 26.18C14.9585 25.8402 14.6758 25.5602 14.3342 25.3711Z" fill="white"/>
<path d="M7.13195 21.1633C7.22801 20.8742 7.3845 20.6089 7.59101 20.3849C7.79753 20.161 8.04935 19.9836 8.32973 19.8644L11.4408 18.2311L11.7831 18.8922L11.0053 19.2967C11.3581 19.321 11.696 19.4481 11.9775 19.6622C12.3068 19.914 12.573 20.2388 12.7553 20.6111C13.0321 21.0793 13.1366 21.6295 13.0508 22.1667C13.0129 22.3914 12.9237 22.6045 12.7901 22.7893C12.6566 22.974 12.4823 23.1256 12.2808 23.2322C12.087 23.3421 11.8706 23.4062 11.6482 23.4197C11.4258 23.4332 11.2032 23.3957 10.9975 23.31C10.4696 23.0269 10.055 22.5711 9.82307 22.0189L8.99084 20.4089L8.67973 20.5644C8.49481 20.6489 8.32988 20.7716 8.19582 20.9244C8.06176 21.0773 7.9616 21.2568 7.90196 21.4511C7.80958 21.88 7.8847 22.328 8.11195 22.7033C8.27678 23.0209 8.49517 23.3077 8.75751 23.5511C8.99661 23.7815 9.27964 23.9614 9.58973 24.08L9.23973 24.6555C8.86941 24.5038 8.53346 24.2789 8.25195 23.9944C7.93311 23.6928 7.66983 23.3374 7.47418 22.9444C7.13029 22.4189 7.00733 21.7789 7.13195 21.1633ZM11.3942 19.9267C11.0643 19.7383 10.6822 19.6619 10.3053 19.7089L9.47307 20.1367L10.3053 21.7389C10.7564 22.6022 11.2853 22.8822 11.8608 22.5711C11.9978 22.5052 12.1167 22.4071 12.2074 22.2852C12.2982 22.1633 12.3581 22.0212 12.382 21.8711C12.4248 21.4949 12.3428 21.115 12.1486 20.79C11.9853 20.4357 11.7234 20.136 11.3942 19.9267Z" fill="white"/>
<path d="M6.93758 14.1556C7.0043 14.0136 7.09844 13.8862 7.21456 13.7808C7.33069 13.6753 7.46652 13.5939 7.61424 13.5411C7.91672 13.4076 8.25858 13.3937 8.57091 13.5022C8.928 13.6223 9.24721 13.8342 9.49646 14.1167C9.79599 14.4415 10.038 14.815 10.212 15.2211C10.376 15.6 10.4835 16.001 10.5309 16.4111C10.5789 16.801 10.5552 17.1964 10.4609 17.5778H9.83091C9.90431 17.2434 9.9227 16.8992 9.88535 16.5589C9.84719 16.2023 9.75542 15.8536 9.61313 15.5245C9.45706 15.1022 9.18802 14.7309 8.83535 14.4511C8.70626 14.3413 8.54927 14.2693 8.38178 14.2432C8.21429 14.2171 8.04285 14.2379 7.88646 14.3033C7.75002 14.3573 7.6316 14.4487 7.5449 14.567C7.45819 14.6854 7.40674 14.8259 7.39646 14.9722C7.36502 15.3635 7.44029 15.7559 7.61424 16.1078L8.00313 17.01L7.4898 17.2356L7.11647 16.3722C6.98841 16.035 6.76724 15.741 6.47869 15.5245C6.36889 15.4415 6.23905 15.3891 6.10241 15.3727C5.96576 15.3563 5.82722 15.3765 5.70091 15.4311C5.56363 15.4873 5.44528 15.5816 5.35984 15.7029C5.2744 15.8242 5.22542 15.9674 5.21869 16.1156C5.18413 16.5145 5.25945 16.9153 5.43647 17.2745C5.69571 17.859 6.09348 18.3715 6.59535 18.7678L6.12869 19.2033C5.53071 18.7384 5.06205 18.1279 4.76758 17.43C4.59958 17.0648 4.49943 16.6721 4.47202 16.2711C4.44133 15.9384 4.49761 15.6033 4.63535 15.2989C4.75794 15.0294 4.97721 14.8156 5.2498 14.7C5.51721 14.5947 5.81461 14.5947 6.08202 14.7C6.38576 14.8078 6.65457 14.9959 6.8598 15.2444C6.77369 14.8821 6.80084 14.502 6.93758 14.1556Z" fill="white"/>
<path d="M5.91098 5.95L7.90209 5.25778L8.1432 5.95L6.78209 6.41666L8.50098 11.3711L3.05653 13.2456L2.79987 12.5144L7.61431 10.8578L6.47098 7.55222L1.69542 9.20888L1.44653 8.47778L6.21431 6.82888L5.91098 5.95Z" fill="white"/>
<path d="M0.233115 2.16221C0.391285 1.90279 0.602723 1.67991 0.85345 1.50829C1.10418 1.33667 1.38848 1.22022 1.68756 1.16666L5.12534 0.272217L5.312 0.987771L4.44867 1.21332C4.78745 1.31047 5.0886 1.50853 5.312 1.78111C5.57534 2.09997 5.76164 2.47523 5.85645 2.87777C6.0262 3.39914 6.00693 3.96364 5.802 4.47221C5.70888 4.68457 5.56945 4.87342 5.39393 5.02495C5.21841 5.17648 5.01123 5.28686 4.78755 5.348C4.56388 5.40913 4.32936 5.41949 4.10117 5.37831C3.87297 5.33713 3.65687 5.24546 3.46867 5.11C3.01749 4.71792 2.71532 4.18226 2.61312 3.59333L2.16978 1.87444L1.82756 1.95999C1.62399 1.99806 1.43076 2.07871 1.26053 2.19666C1.09031 2.31462 0.946926 2.46721 0.839783 2.64444C0.655504 3.04261 0.63046 3.49617 0.769783 3.91221C0.861846 4.25514 1.00894 4.58085 1.20534 4.87666C1.39161 5.15489 1.62918 5.3951 1.90534 5.58444L1.43089 6.06666C1.11779 5.82926 0.853664 5.53344 0.653115 5.19555C0.416647 4.83039 0.243127 4.42814 0.139781 4.00555C0.0335197 3.70722 -0.0129294 3.39088 0.00308491 3.0746C0.0190992 2.75831 0.0972639 2.44828 0.233115 2.16221ZM4.66645 1.90554C4.3868 1.65018 4.03217 1.49197 3.65534 1.45444L2.74534 1.68777L3.19645 3.42999C3.44534 4.3711 3.89645 4.76 4.55756 4.58889C4.70759 4.55762 4.84741 4.48927 4.96425 4.3901C5.08108 4.29092 5.17123 4.16406 5.22645 4.0211C5.34567 3.6626 5.34567 3.27515 5.22645 2.91666C5.14565 2.52199 4.95096 2.15965 4.66645 1.87444V1.90554Z" fill="white"/>
</svg>
