<svg width="180" height="73" viewBox="0 0 180 73" fill="none" xmlns="http://www.w3.org/2000/svg">
<path d="M5.68555 65.2011C6.15926 65.0165 6.68502 65.0163 7.15885 65.2007C7.63267 65.385 8.02008 65.7404 8.24444 66.1967C8.47127 66.8889 8.47127 67.6355 8.24444 68.3278L7.35778 71.5867L0 69.5956L0.832222 66.5389C0.968892 65.8789 1.31214 65.2796 1.81222 64.8278C2.02864 64.6571 2.28374 64.5423 2.55502 64.4934C2.82629 64.4446 3.10542 64.4633 3.36778 64.5478C3.74452 64.6352 4.08124 64.846 4.32444 65.1467C4.5562 65.4505 4.69408 65.8155 4.72111 66.1967C4.91748 65.7631 5.2584 65.4112 5.68555 65.2011ZM3.57778 69.7278L4.19222 67.48C4.34573 67.026 4.34573 66.5341 4.19222 66.08C4.10565 65.9023 3.98201 65.7451 3.82962 65.6192C3.67724 65.4932 3.49965 65.4014 3.30879 65.3498C3.11793 65.2982 2.91824 65.2881 2.72315 65.3201C2.52806 65.3522 2.3421 65.4256 2.17778 65.5356C1.81987 65.8541 1.57436 66.2796 1.47778 66.7489L0.871112 68.9967L3.57778 69.7278ZM6.75889 65.8389C5.83333 65.5822 5.20333 66.0956 4.85333 67.3945L4.17667 69.8833L6.98444 70.6611L7.66111 68.1722C7.97222 66.8889 7.66889 66.1345 6.72778 65.8778L6.75889 65.8389Z" fill="white"/>
<path d="M7.90224 59.1578C8.12475 59.035 8.37294 58.9662 8.62688 58.9567C8.88082 58.9473 9.13344 58.9975 9.36447 59.1033C9.62165 59.182 9.8562 59.3212 10.0484 59.5093C10.2406 59.6975 10.3848 59.929 10.4689 60.1844C10.6178 60.7854 10.5575 61.4191 10.2978 61.9811L9.52002 64.0967L4.16113 62.0744L4.43336 61.3511L6.3078 62.0589L6.90669 60.5033C7.0761 59.9548 7.42721 59.4802 7.90224 59.1578ZM6.0978 56.8244L6.37002 56.1011L11.7289 58.1233L11.4567 58.8467L6.0978 56.8244ZM9.85447 60.5344C9.78918 60.3622 9.68504 60.2073 9.55014 60.0818C9.41524 59.9564 9.25322 59.8637 9.07669 59.8111C8.91561 59.7364 8.7389 59.7017 8.56153 59.7098C8.38417 59.7179 8.21137 59.7687 8.0578 59.8578C7.71479 60.1121 7.46149 60.4689 7.33447 60.8767L6.80558 62.2222L9.18558 63.1244L9.71447 61.7789C9.90196 61.4006 9.95147 60.9687 9.85447 60.5578V60.5344Z" fill="white"/>
<path d="M14.3889 50.9678L16.24 51.8622L15.9211 52.5156L14.6767 51.9167L12.4445 56.5289L13.6889 57.1356L13.37 57.7889L11.5189 56.8944L11.6589 56.5989C11.8067 56.2489 11.6589 55.8833 11.2389 55.5256C10.6318 55.0515 9.98367 54.6325 9.30225 54.2733L7.60669 53.3711L9.45002 49.5678L14 51.7689L14.3889 50.9678ZM11.3556 54.74C11.7222 54.9468 11.9993 55.2821 12.1334 55.6811L13.6889 52.4611L9.76113 50.5633L8.56336 53.0444L9.68336 53.6589C10.2651 53.9801 10.8239 54.3413 11.3556 54.74Z" fill="white"/>
<path d="M13.0199 44.2711C13.3164 44.1988 13.6248 44.1898 13.925 44.2447C14.2252 44.2997 14.5105 44.4173 14.7621 44.59L17.8266 46.3789L17.4532 47.0167L16.6755 46.5656C16.8465 46.8736 16.9223 47.2255 16.8932 47.5767C16.8543 47.9901 16.7213 48.3892 16.5043 48.7433C16.2518 49.2294 15.8399 49.6138 15.3377 49.8322C15.1221 49.9173 14.8898 49.9511 14.6589 49.9308C14.4281 49.9106 14.2051 49.8369 14.0077 49.7156C13.8059 49.6124 13.6306 49.4639 13.4957 49.2817C13.3608 49.0996 13.2698 48.8887 13.2299 48.6656C13.1866 48.0565 13.3633 47.4521 13.7277 46.9622L14.6455 45.4067L14.3421 45.2356C14.1709 45.1193 13.9772 45.0405 13.7734 45.0044C13.5697 44.9682 13.3606 44.9754 13.1599 45.0256C12.7476 45.1745 12.4099 45.4788 12.2188 45.8733C12.0344 46.1795 11.9079 46.517 11.8455 46.8689C11.7872 47.1956 11.7872 47.53 11.8455 47.8567H11.1766C11.1 47.4637 11.1 47.0596 11.1766 46.6667C11.2677 46.2391 11.428 45.8293 11.651 45.4533C11.9373 44.8971 12.4279 44.4733 13.0199 44.2711ZM16.3488 47.2189C16.3278 46.8411 16.1891 46.4794 15.9521 46.1845L15.1743 45.7178L14.2721 47.2733C13.7743 48.1211 13.821 48.72 14.4121 49.0622C14.5415 49.1422 14.6883 49.1897 14.84 49.2005C14.9917 49.2113 15.1438 49.1852 15.2832 49.1245C15.62 48.9564 15.893 48.6835 16.061 48.3467C16.2629 48.006 16.3628 47.6146 16.3488 47.2189Z" fill="white"/>
<path d="M19.5379 39.13L16.8001 43.0733C17.0295 43.2169 17.2851 43.3135 17.5522 43.3576C17.8192 43.4016 18.0923 43.3923 18.3557 43.33C18.9095 43.1844 19.3876 42.8342 19.6934 42.35C19.8875 42.0747 20.0226 41.7622 20.0901 41.4322C20.164 41.1176 20.164 40.7902 20.0901 40.4756L20.7512 40.3978C20.8487 40.7858 20.8487 41.192 20.7512 41.58C20.6614 42.0022 20.4867 42.4017 20.2379 42.7544C19.9645 43.2044 19.5853 43.5809 19.1334 43.8511C18.6819 44.08 18.1758 44.1796 17.6712 44.1389C17.1489 44.0856 16.6485 43.901 16.2168 43.6022C15.782 43.31 15.4266 42.9145 15.1823 42.4511C14.96 42.0142 14.863 41.5242 14.9023 41.0356C14.953 40.5417 15.128 40.0687 15.4109 39.6607C15.6938 39.2526 16.0754 38.9229 16.5201 38.7022C16.9602 38.5003 17.4462 38.4197 17.9279 38.4689C18.4492 38.5324 18.9464 38.7248 19.3746 39.0289L19.5379 39.13ZM15.5712 41.4633C15.6514 41.9832 15.9302 42.4517 16.349 42.77L18.6823 39.4256C18.2219 39.1503 17.6728 39.0639 17.1501 39.1845C16.6448 39.2989 16.2039 39.6058 15.9212 40.04C15.6293 40.4445 15.504 40.9457 15.5712 41.44V41.4633Z" fill="white"/>
<path d="M22.2445 30.7845L26.6623 34.4322L26.2112 34.9767L22.7189 32.0911L24.1967 36.3222L23.9789 36.5867L19.5378 35.9333L23.0378 38.8189L22.5867 39.3711L18.1689 35.7233L18.6667 35.1167L23.3956 35.8945L21.7856 31.36L22.2445 30.7845Z" fill="white"/>
<path d="M33.6156 26.5767L35.0311 28.07L34.5023 28.5755L33.5534 27.5722L29.8278 31.1033L30.8 32.1067L30.2711 32.6044L28.8478 31.1111L29.0889 30.8933C29.3534 30.6055 29.3456 30.2244 29.0889 29.7344C28.6817 29.0746 28.2129 28.4548 27.6889 27.8833L26.4211 26.4367L29.4856 23.5278L32.97 27.1911L33.6156 26.5767ZM29.4623 29.0267C29.7162 29.3574 29.8407 29.7695 29.8123 30.1855L32.4023 27.7278L29.4 24.5622L27.4011 26.4522L28.2334 27.4244C28.6794 27.9296 29.09 28.4649 29.4623 29.0267Z" fill="white"/>
<path d="M31.5156 21.7389L32.1145 21.2567L34.969 24.8033L35.1012 18.8611L35.6301 18.4333L39.2156 22.8978L38.6167 23.38L35.7623 19.8333L35.6456 25.7678L35.1012 26.2033L31.5156 21.7389Z" fill="white"/>
<path d="M41.9533 14.0544L45.15 18.8067L44.5045 19.2422L41.6889 15.0733L38.71 17.08L41.5256 21.2644L40.88 21.6922L37.6833 16.94L41.9533 14.0544Z" fill="white"/>
<path d="M48.1756 10.4611L50.9756 15.4622L50.2989 15.8356L47.8334 11.4411L45.4378 12.7789L46.0678 14.0545C46.5049 14.8664 46.8343 15.7318 47.0478 16.6289C47.1312 16.8902 47.1217 17.1722 47.0211 17.4273C46.9205 17.6824 46.7348 17.8949 46.4956 18.0289C46.3319 18.1179 46.1564 18.1833 45.9745 18.2233L45.6945 17.6245C45.7848 17.6043 45.8714 17.5702 45.9511 17.5233C46.0764 17.4585 46.1799 17.3584 46.249 17.2354C46.3181 17.1124 46.3498 16.9719 46.34 16.8311C46.3306 16.4744 46.2513 16.1229 46.1067 15.7967C45.9511 15.413 45.7256 14.923 45.43 14.3267L44.52 12.4911L48.1756 10.4611Z" fill="white"/>
<path d="M53.4566 13.8756C52.9568 13.8345 52.4779 13.6569 52.0722 13.3622C51.65 13.0498 51.3138 12.6357 51.0948 12.1583C50.8759 11.681 50.7813 11.156 50.82 10.6322C50.8597 10.1345 51.0374 9.65774 51.3333 9.25555C51.6465 8.84175 52.0583 8.51288 52.5311 8.29888C53.0004 8.07305 53.5205 7.97384 54.04 8.01111C54.5391 8.04951 55.018 8.2244 55.4244 8.51666C55.8403 8.83478 56.1719 9.24995 56.3902 9.72587C56.6085 10.2018 56.7068 10.7239 56.6766 11.2467C56.6396 11.7437 56.4645 12.2205 56.1711 12.6233C55.8563 13.039 55.444 13.3707 54.9705 13.5891C54.4971 13.8075 53.9771 13.9059 53.4566 13.8756ZM55.5644 12.2578C55.778 11.9532 55.9019 11.5948 55.9222 11.2233C55.9381 10.8189 55.8581 10.4165 55.6889 10.0489C55.5137 9.67421 55.2461 9.35032 54.9111 9.10777C54.6164 8.87954 54.2632 8.73933 53.8922 8.70333C53.5163 8.6888 53.1424 8.76538 52.8025 8.92654C52.4626 9.0877 52.1667 9.32866 51.94 9.62888C51.724 9.93285 51.5974 10.2912 51.5744 10.6633C51.5545 11.068 51.6346 11.4714 51.8077 11.8378C51.9847 12.1983 52.2495 12.5086 52.5777 12.74C52.8724 12.9682 53.2256 13.1084 53.5966 13.1444C53.9783 13.1663 54.3595 13.094 54.7067 12.934C55.0539 12.7739 55.3564 12.531 55.5877 12.2267L55.5644 12.2578Z" fill="white"/>
<path d="M63.0777 4.18445L65.0221 9.62889L64.3532 9.87L62.7977 5.6L61.911 9.96334L61.5844 10.08L58.1077 7.23334L59.6632 11.5111L58.9944 11.7522L57.0732 6.35445L57.851 6.09L61.5221 9.16223L62.4632 4.44889L63.0777 4.18445Z" fill="white"/>
<path d="M73.1422 1.6489L71.7811 8.54001C71.7173 9.00967 71.5323 9.45463 71.2444 9.83112C70.9865 10.1292 70.6358 10.3319 70.2488 10.4067C69.9943 10.4675 69.7311 10.4833 69.4711 10.4533C69.2262 10.4214 68.9906 10.3393 68.7788 10.2122L69.0044 9.56667C69.1671 9.6724 69.3495 9.74413 69.5406 9.77755C69.7318 9.81096 69.9277 9.80537 70.1166 9.76112C70.3548 9.7126 70.5691 9.58351 70.7233 9.39556C70.9009 9.14873 71.0181 8.86369 71.0655 8.56334L71.1822 7.96445L67.4177 2.95556L68.1955 2.77667L71.3766 7.04667L72.3955 1.85112L73.1422 1.6489Z" fill="white"/>
<path d="M76.1368 6.64223C75.6626 6.47596 75.2467 6.17615 74.939 5.7789C74.6079 5.36658 74.3955 4.8718 74.3246 4.34779C74.2328 3.82601 74.2811 3.28923 74.4646 2.79223C74.6426 2.32448 74.9468 1.91525 75.3434 1.61001C75.7391 1.31451 76.197 1.11325 76.6823 1.0216C77.1675 0.929939 77.6673 0.950298 78.1434 1.08112C78.5467 1.2095 78.9054 1.44951 79.1779 1.77334L78.6723 2.24779C78.4613 2.01288 78.1935 1.83612 77.8946 1.73445C77.5491 1.63899 77.1862 1.62442 76.8341 1.69186C76.4821 1.7593 76.1503 1.90695 75.8646 2.12334C75.5688 2.35242 75.347 2.66349 75.2268 3.01779C75.0917 3.40205 75.0595 3.815 75.1334 4.21556C75.188 4.61832 75.3431 5.00083 75.5846 5.32779C75.8145 5.62282 76.1213 5.84885 76.4712 5.98112C76.8399 6.11316 77.2363 6.14798 77.6223 6.08223C77.945 6.03294 78.253 5.91347 78.5246 5.73223C78.7963 5.53556 79.0066 5.26587 79.1312 4.95445L79.769 5.25001C79.6096 5.64481 79.3395 5.98513 78.9912 6.23001C78.6138 6.48677 78.1829 6.65433 77.7312 6.72001C77.2022 6.83577 76.652 6.80893 76.1368 6.64223Z" fill="white"/>
<path d="M84.7077 0.855556L82.5455 1.05778L83.0199 6.08222L82.2421 6.15222L81.7677 1.12778L79.6132 1.33L79.551 0.645557L84.6377 0.171112L84.7077 0.855556Z" fill="white"/>
<path d="M89.7089 0.521115C89.9254 0.734236 90.0947 0.990436 90.2059 1.27313C90.3171 1.55583 90.3677 1.85873 90.3545 2.16222L90.4556 5.74H89.7167V4.84556C89.5344 5.15805 89.2638 5.4097 88.9389 5.56889C88.5694 5.75335 88.1619 5.84921 87.7489 5.84889C87.1983 5.89627 86.6483 5.75053 86.1934 5.43667C86.0069 5.29949 85.8554 5.1202 85.7514 4.91341C85.6473 4.70662 85.5935 4.47817 85.5945 4.24667C85.5785 4.0232 85.6152 3.79909 85.7017 3.59241C85.7881 3.38572 85.9219 3.20221 86.0922 3.05667C86.5717 2.70112 87.1607 2.52498 87.7567 2.55889L89.5767 2.51223V2.16222C89.5812 1.96005 89.5442 1.75909 89.468 1.5718C89.3917 1.3845 89.2778 1.21484 89.1334 1.07334C88.7894 0.804061 88.3545 0.678603 87.92 0.723336C87.5627 0.729243 87.2095 0.800413 86.8778 0.933336C86.5648 1.05182 86.2771 1.22866 86.03 1.45445L85.6645 0.88667C85.9659 0.620066 86.3176 0.416442 86.6989 0.28778C87.1083 0.139121 87.539 0.0576989 87.9745 0.0466698C88.5922 -0.0255722 89.2139 0.144492 89.7089 0.521115ZM88.9311 4.9C89.2418 4.68212 89.4758 4.37187 89.6 4.01334V3.08L87.8033 3.12667C86.8233 3.12667 86.3411 3.50778 86.3645 4.19223C86.3616 4.34532 86.3972 4.49668 86.4678 4.63252C86.5385 4.76837 86.642 4.88439 86.7689 4.97C87.0881 5.17286 87.4658 5.2632 87.8422 5.22667C88.2399 5.23301 88.6303 5.11916 88.9622 4.9H88.9311Z" fill="white"/>
<path d="M92.6645 0L93.4423 0.0388883L93.3178 2.56667L96.9189 2.74555L97.0434 0.209999L97.8212 0.248889L97.5412 5.97333L96.7634 5.93444L96.9112 3.40667L93.31 3.23556L93.1545 5.74L92.3767 5.70111L92.6645 0Z" fill="white"/>
<path d="M100.466 5.95777C100.067 5.65569 99.7554 5.25306 99.5633 4.79111C99.3777 4.30096 99.3161 3.77256 99.3839 3.25286C99.4518 2.73317 99.647 2.23829 99.9522 1.81222C100.251 1.40923 100.659 1.09914 101.127 0.917773C101.621 0.725303 102.158 0.666292 102.682 0.746662C103.2 0.805304 103.693 0.998361 104.113 1.30666C104.513 1.60229 104.823 2.00362 105.008 2.46555C105.193 2.9557 105.255 3.4841 105.187 4.00379C105.119 4.52349 104.924 5.01837 104.619 5.44444C104.322 5.84884 103.918 6.16153 103.452 6.34666C102.958 6.54176 102.422 6.60345 101.897 6.52555C101.38 6.45918 100.887 6.26395 100.466 5.95777ZM103.133 5.73999C103.478 5.59895 103.776 5.36129 103.989 5.05555C104.222 4.72422 104.367 4.33863 104.409 3.93555C104.471 3.53539 104.431 3.12605 104.292 2.74555C104.168 2.39552 103.944 2.08983 103.647 1.86666C103.34 1.63664 102.978 1.49176 102.597 1.44666C102.218 1.39051 101.832 1.43614 101.477 1.57888C101.13 1.72165 100.831 1.95881 100.613 2.26333C100.38 2.59466 100.235 2.98025 100.193 3.38333C100.132 3.7835 100.172 4.19275 100.31 4.57333C100.44 4.92242 100.666 5.22728 100.963 5.45222C101.271 5.68096 101.633 5.8257 102.013 5.87222C102.392 5.92837 102.778 5.88273 103.133 5.73999Z" fill="white"/>
<path d="M111.308 6.59556C111.272 6.8162 111.182 7.02459 111.046 7.20229C110.911 7.37999 110.733 7.52155 110.53 7.61444C109.981 7.80762 109.385 7.82394 108.827 7.66111L106.244 7.12445L107.427 1.52444L109.9 2.04556C110.432 2.12759 110.927 2.36582 111.323 2.73C111.471 2.88449 111.578 3.07375 111.634 3.28034C111.69 3.48694 111.692 3.70423 111.642 3.91222C111.586 4.19523 111.438 4.45199 111.222 4.64333C111 4.82738 110.73 4.94588 110.444 4.98556C110.767 5.0929 111.036 5.3195 111.196 5.61888C111.357 5.91825 111.397 6.2677 111.308 6.59556ZM110.048 7.05445C110.186 7.00195 110.308 6.91268 110.4 6.7962C110.492 6.67973 110.55 6.54046 110.569 6.39333C110.603 6.25877 110.604 6.11815 110.573 5.98297C110.542 5.84779 110.479 5.72188 110.39 5.61556C110.114 5.3674 109.77 5.20757 109.402 5.15667L107.543 4.76778L107.131 6.72L108.912 7.09333C109.287 7.18829 109.681 7.17481 110.048 7.05445ZM107.668 4.18444L109.348 4.54222C109.693 4.63917 110.06 4.62557 110.398 4.50333C110.528 4.44753 110.641 4.35981 110.728 4.24832C110.815 4.13683 110.873 4.00517 110.895 3.86556C110.932 3.72948 110.932 3.58635 110.897 3.45007C110.861 3.31379 110.791 3.18899 110.693 3.08778C110.429 2.85234 110.102 2.69837 109.752 2.64445L108.064 2.28667L107.668 4.18444Z" fill="white"/>
<path d="M118.689 4.36333L117.079 9.85445L116.356 9.62889L117.779 4.79111L115.142 4.01334L114.676 5.35111C114.397 6.23676 114.002 7.08154 113.501 7.86333C113.373 8.10532 113.165 8.29599 112.913 8.40356C112.661 8.51112 112.38 8.52908 112.117 8.45445C111.937 8.39879 111.767 8.31759 111.611 8.21334L111.844 7.59111C111.923 7.64071 112.006 7.6824 112.093 7.71556C112.23 7.7549 112.374 7.75613 112.512 7.71911C112.649 7.68209 112.773 7.60823 112.871 7.50556C113.115 7.24394 113.309 6.94106 113.447 6.61111C113.61 6.23 113.804 5.73222 114.03 5.10222L114.699 3.16556L118.689 4.36333Z" fill="white"/>
<path d="M124.647 9.84666L120.167 8.13555C120.08 8.39656 120.048 8.67228 120.07 8.94623C120.093 9.22018 120.171 9.48674 120.299 9.72999C120.571 10.2345 121.024 10.6178 121.567 10.8033C121.878 10.9264 122.212 10.9846 122.547 10.9744C122.87 10.9618 123.186 10.8767 123.472 10.7255L123.698 11.3478C123.352 11.5468 122.961 11.654 122.562 11.6589C122.131 11.6698 121.702 11.5931 121.302 11.4333C120.787 11.2543 120.329 10.9431 119.972 10.5311C119.645 10.1451 119.43 9.67713 119.35 9.17777C119.272 8.65253 119.334 8.11614 119.529 7.62221C119.71 7.12973 120.012 6.69094 120.408 6.34666C120.777 6.02529 121.23 5.81498 121.714 5.73999C122.21 5.66359 122.717 5.71995 123.184 5.90332C123.654 6.07452 124.068 6.37028 124.382 6.75888C124.674 7.14115 124.857 7.59542 124.911 8.07332C124.978 8.6006 124.908 9.13615 124.709 9.62888L124.647 9.84666ZM121.458 6.51777C120.975 6.71929 120.589 7.09778 120.377 7.57555L124.172 9.02221C124.326 8.52072 124.287 7.97994 124.063 7.50555C123.832 7.04345 123.431 6.68925 122.943 6.51777C122.467 6.32284 121.934 6.32284 121.458 6.51777Z" fill="white"/>
<path d="M127.633 7.75446L128.326 8.0889L127.244 10.4067L130.495 11.9622L131.584 9.6289L132.277 9.96334L129.811 15.1278L129.119 14.7933L130.2 12.5145L126.949 10.9589L125.86 13.2378L125.168 12.9033L127.633 7.75446Z" fill="white"/>
<path d="M134.501 11.1844L135.17 11.5733L133.887 13.7667L136.998 15.5867L138.281 13.3933L138.95 13.79L136.057 18.7289L135.388 18.34L136.663 16.1622L133.552 14.3422L132.277 16.52L131.608 16.1311L134.501 11.1844Z" fill="white"/>
<path d="M138.678 20.0511C138.462 19.6014 138.373 19.1011 138.421 18.6044C138.481 18.0834 138.67 17.5855 138.97 17.1553C139.27 16.725 139.672 16.3758 140.14 16.1389C140.593 15.9259 141.096 15.8399 141.594 15.89C142.11 15.9552 142.602 16.1452 143.027 16.4433C143.453 16.7415 143.799 17.1389 144.037 17.6011C144.26 18.0484 144.349 18.5509 144.293 19.0478C144.239 19.57 144.048 20.0688 143.741 20.4944C143.447 20.9293 143.045 21.2804 142.574 21.5133C142.123 21.7314 141.618 21.8177 141.12 21.7622C140.603 21.7122 140.108 21.5241 139.689 21.2178C139.256 20.9234 138.908 20.5213 138.678 20.0511ZM141.135 21.0544C141.506 21.086 141.878 21.0133 142.209 20.8444C142.563 20.6605 142.867 20.3936 143.095 20.0667C143.35 19.7471 143.516 19.3662 143.578 18.9622C143.627 18.5929 143.568 18.2171 143.407 17.8811C143.232 17.5309 142.963 17.237 142.629 17.0333C142.328 16.804 141.968 16.6641 141.591 16.6297C141.214 16.5953 140.835 16.6678 140.498 16.8389C140.139 17.0191 139.832 17.2866 139.603 17.6167C139.366 17.9453 139.214 18.3274 139.16 18.7289C139.117 19.1006 139.177 19.477 139.331 19.8178C139.499 20.162 139.754 20.4568 140.07 20.6733C140.384 20.8941 140.752 21.0258 141.135 21.0544Z" fill="white"/>
<path d="M149.606 22.4233L147.054 20.3622L143.881 24.2511L143.282 23.7611L146.883 19.3122L150.033 21.8556L149.606 22.4233Z" fill="white"/>
<path d="M147.856 27.1911C147.703 26.7156 147.682 26.2078 147.793 25.7211C147.93 25.2074 148.198 24.7382 148.571 24.36C148.903 23.9789 149.326 23.6874 149.8 23.5122C150.276 23.3609 150.785 23.3447 151.27 23.4656C151.774 23.5958 152.238 23.8485 152.621 24.2013C153.003 24.5541 153.293 24.9961 153.463 25.4878C153.623 25.9592 153.645 26.4667 153.526 26.95C153.389 27.4637 153.121 27.933 152.748 28.3111C152.396 28.702 151.948 28.9943 151.449 29.1589C150.974 29.3154 150.465 29.3369 149.979 29.2211C149.474 29.0908 149.009 28.8371 148.626 28.4828C148.243 28.1285 147.955 27.6846 147.786 27.1911H147.856ZM150.189 28.5211C150.551 28.5988 150.928 28.5746 151.278 28.4511C151.651 28.3039 151.985 28.073 152.255 27.7764C152.524 27.4797 152.722 27.1252 152.833 26.74C152.939 26.382 152.939 26.0013 152.833 25.6433C152.715 25.2808 152.503 24.956 152.219 24.7022C151.941 24.436 151.598 24.2481 151.223 24.1578C150.859 24.0773 150.48 24.0989 150.127 24.22C149.746 24.359 149.404 24.5886 149.131 24.8889C148.851 25.1811 148.651 25.5398 148.548 25.9311C148.447 26.2923 148.447 26.6744 148.548 27.0356C148.666 27.3981 148.878 27.7229 149.162 27.9767C149.44 28.2429 149.784 28.4308 150.158 28.5211H150.189Z" fill="white"/>
<path d="M154.646 33.9656C154.547 33.4754 154.582 32.9676 154.747 32.4956C154.934 32.0058 155.239 31.5699 155.635 31.2266C156.031 30.8833 156.506 30.6432 157.018 30.5278C157.509 30.4295 158.018 30.4699 158.488 30.6445C158.971 30.8351 159.401 31.1398 159.741 31.5325C160.081 31.9253 160.321 32.3945 160.44 32.9C160.543 33.3874 160.508 33.8936 160.339 34.3622C160.152 34.852 159.847 35.2879 159.45 35.6312C159.054 35.9745 158.579 36.2146 158.068 36.33C157.577 36.4304 157.068 36.3927 156.598 36.2211C156.109 36.0424 155.674 35.7395 155.338 35.3422C154.993 34.9504 154.754 34.4763 154.646 33.9656ZM156.784 35.5211C157.135 35.644 157.513 35.6629 157.873 35.5756C158.27 35.4747 158.637 35.281 158.944 35.0106C159.251 34.7401 159.489 34.4006 159.639 34.02C159.777 33.6743 159.812 33.2963 159.74 32.9311C159.658 32.5576 159.485 32.2104 159.235 31.9211C158.985 31.6318 158.667 31.4095 158.309 31.2745C157.955 31.1551 157.576 31.1363 157.212 31.22C156.816 31.31 156.449 31.5002 156.147 31.7722C155.837 32.0338 155.597 32.3678 155.447 32.7445C155.316 33.0919 155.284 33.4687 155.353 33.8333C155.429 34.217 155.602 34.5749 155.855 34.873C156.109 35.1712 156.434 35.3996 156.8 35.5367L156.784 35.5211Z" fill="white"/>
<path d="M164.92 38.9822C164.974 39.4506 164.896 39.9249 164.694 40.3511C164.465 40.8088 164.13 41.2046 163.715 41.5051C163.301 41.8057 162.821 42.0021 162.314 42.0778C161.831 42.1399 161.339 42.0616 160.899 41.8522C160.427 41.6296 160.021 41.2862 159.724 40.8567C159.456 40.5306 159.271 40.1449 159.183 39.7321C159.095 39.3193 159.107 38.8914 159.219 38.4844C159.538 37.5516 160.159 36.7522 160.984 36.2133C161.746 35.5756 162.686 35.1897 163.676 35.1089C164.547 35.1397 165.377 35.4882 166.009 36.0889L168.008 37.8156L167.518 38.3367L165.636 36.7189C165.138 36.229 164.493 35.9173 163.8 35.8322C163.067 35.836 162.356 36.0822 161.778 36.5322C162.268 36.4467 162.773 36.5047 163.231 36.6993C163.689 36.8939 164.081 37.2167 164.36 37.6289C164.66 38.0245 164.852 38.4905 164.92 38.9822ZM161.109 41.1911C161.443 41.3386 161.813 41.3872 162.174 41.3311C162.564 41.2684 162.933 41.1108 163.248 40.8722C163.577 40.6568 163.846 40.3592 164.026 40.0089C164.178 39.6867 164.237 39.3285 164.197 38.9744C164.14 38.6006 163.994 38.246 163.771 37.9412C163.547 37.6363 163.253 37.3904 162.913 37.2244C162.587 37.0761 162.226 37.0222 161.871 37.0689C161.488 37.1226 161.126 37.2754 160.821 37.5122C160.49 37.7363 160.222 38.0416 160.043 38.3989C159.874 38.7268 159.809 39.0985 159.857 39.4644C159.896 39.8382 160.039 40.1937 160.269 40.4911C160.478 40.7983 160.769 41.0407 161.109 41.1911Z" fill="white"/>
<path d="M169.244 45.3289C169.264 45.8209 169.146 46.3087 168.902 46.7367C168.639 47.1959 168.261 47.5791 167.806 47.8489C167.356 48.1327 166.843 48.2986 166.312 48.3311C165.819 48.3521 165.329 48.2363 164.897 47.9967C164.448 47.7519 164.071 47.3956 163.8 46.9622C163.567 46.594 163.425 46.1753 163.388 45.7411C163.355 45.3172 163.438 44.8922 163.629 44.5122L160.907 46.1844L160.502 45.5233L167.191 41.4244L167.572 42.0544L166.608 42.6455C167.038 42.6424 167.46 42.7581 167.829 42.98C168.216 43.211 168.539 43.5344 168.77 43.9211C169.045 44.3426 169.208 44.827 169.244 45.3289ZM165.184 47.32C165.513 47.498 165.885 47.5815 166.258 47.5611C166.664 47.5323 167.056 47.4041 167.401 47.1878C167.749 46.9849 168.038 46.6956 168.241 46.3478C168.431 46.0226 168.525 45.6507 168.513 45.2744C168.503 44.8937 168.391 44.5228 168.187 44.2011C167.991 43.8717 167.708 43.6026 167.37 43.4233C167.044 43.2451 166.675 43.1641 166.304 43.19C165.901 43.2114 165.509 43.3374 165.169 43.5556C164.819 43.7614 164.527 44.0532 164.321 44.4033C164.131 44.723 164.034 45.0893 164.041 45.4611C164.058 45.8454 164.176 46.2184 164.383 46.5422C164.571 46.8644 164.839 47.1324 165.161 47.32H165.184Z" fill="white"/>
<path d="M172.356 51.6289C172.256 51.9154 172.097 52.1777 171.889 52.3988C171.682 52.6199 171.43 52.7948 171.15 52.9122L167.985 54.5222L167.65 53.8611L168.428 53.4566C168.076 53.4374 167.739 53.3097 167.463 53.0911C167.133 52.8371 166.867 52.5095 166.686 52.1344C166.411 51.6652 166.31 51.1151 166.398 50.5789C166.445 50.3562 166.54 50.1465 166.677 49.9646C166.814 49.7827 166.989 49.6331 167.19 49.5263C167.391 49.4195 167.613 49.3581 167.84 49.3464C168.068 49.3348 168.295 49.3732 168.506 49.4589C169.032 49.7426 169.442 50.2023 169.665 50.7578L170.497 52.3755L170.808 52.22C170.991 52.1348 171.154 52.0127 171.288 51.8615C171.422 51.7103 171.523 51.5332 171.586 51.3411C171.684 50.9133 171.612 50.4638 171.383 50.0889C171.224 49.7697 171.011 49.4803 170.753 49.2333C170.511 49.0049 170.229 48.823 169.921 48.6967L170.271 48.1211C170.641 48.2783 170.976 48.5054 171.259 48.79C171.574 49.0978 171.837 49.4551 172.037 49.8478C172.372 50.3769 172.486 51.0163 172.356 51.6289ZM168.078 52.8267C168.407 53.0166 168.789 53.0957 169.167 53.0522L169.999 52.6322L169.221 51.03C168.77 50.1589 168.249 49.8711 167.666 50.1822C167.527 50.2473 167.405 50.3448 167.312 50.4667C167.218 50.5885 167.156 50.731 167.129 50.8822C167.087 51.2584 167.169 51.6381 167.362 51.9633C167.516 52.3011 167.761 52.5892 168.07 52.7955L168.078 52.8267Z" fill="white"/>
<path d="M172.488 58.6289C172.361 58.918 172.127 59.1466 171.835 59.2667C171.527 59.3876 171.185 59.3876 170.878 59.2667C170.523 59.1461 170.207 58.9341 169.96 58.6522C169.662 58.3251 169.422 57.9488 169.252 57.54C169.091 57.1608 168.986 56.7598 168.941 56.35C168.891 55.9597 168.918 55.5635 169.019 55.1833H169.649C169.573 55.5199 169.552 55.8667 169.587 56.21C169.623 56.566 169.712 56.9146 169.851 57.2444C170.009 57.668 170.277 58.0415 170.629 58.3256C170.758 58.4354 170.915 58.5074 171.083 58.5335C171.25 58.5595 171.421 58.5387 171.578 58.4733C171.713 58.42 171.831 58.3298 171.917 58.2129C172.004 58.096 172.056 57.9572 172.068 57.8122C172.106 57.419 172.033 57.0229 171.858 56.6689L171.477 55.7667L171.998 55.5489L172.363 56.4044C172.49 56.7428 172.708 57.0391 172.993 57.26C173.102 57.3455 173.231 57.4007 173.368 57.4198C173.504 57.439 173.644 57.4214 173.771 57.3689C173.911 57.3133 174.032 57.2183 174.119 57.0954C174.206 56.9726 174.255 56.8271 174.261 56.6767C174.297 56.2785 174.225 55.878 174.051 55.5178C173.793 54.9325 173.398 54.4177 172.9 54.0167L173.367 53.5811C173.942 54.049 174.396 54.6495 174.689 55.3311C174.851 55.6979 174.949 56.09 174.977 56.49C175.005 56.8234 174.946 57.1585 174.806 57.4622C174.68 57.7302 174.458 57.9412 174.183 58.0533C173.916 58.1587 173.619 58.1587 173.351 58.0533C173.048 57.9404 172.78 57.75 172.573 57.5011C172.666 57.8765 172.636 58.2717 172.488 58.6289Z" fill="white"/>
<path d="M173.46 66.8033L171.461 67.48L171.228 66.7956L172.589 66.3289L170.909 61.3667L176.353 59.5311L176.602 60.2622L171.819 61.8878L172.939 65.1933L177.722 63.5756L177.971 64.3067L173.133 65.9322L173.46 66.8033Z" fill="white"/>
<path d="M179.107 70.6222C178.946 70.8816 178.731 71.1038 178.478 71.2741C178.224 71.4444 177.938 71.5589 177.637 71.61L174.199 72.4811L174.02 71.7578L174.883 71.54C174.545 71.4415 174.244 71.2437 174.02 70.9722C173.757 70.6479 173.574 70.2672 173.483 69.86C173.328 69.3488 173.353 68.7996 173.553 68.3044C173.648 68.0933 173.788 67.906 173.965 67.7561C174.141 67.6062 174.348 67.4975 174.572 67.4379C174.795 67.3783 175.029 67.3693 175.257 67.4116C175.484 67.4538 175.699 67.5463 175.887 67.6822C176.34 68.0878 176.639 68.6372 176.734 69.2378L177.178 71.0033L177.512 70.9178C177.716 70.8798 177.909 70.8001 178.081 70.6836C178.252 70.5671 178.397 70.4165 178.508 70.2411C178.695 69.8439 178.722 69.3903 178.585 68.9733C178.5 68.6271 178.355 68.2983 178.158 68.0011C177.972 67.725 177.737 67.4851 177.466 67.2933L177.94 66.8111C178.252 67.0498 178.516 67.3453 178.718 67.6822C178.95 68.0512 179.121 68.4558 179.223 68.88C179.404 69.4548 179.363 70.0766 179.107 70.6222ZM174.665 70.8478C174.946 71.1028 175.3 71.2633 175.677 71.3067L176.587 71.0811L176.143 69.3389C175.91 68.39 175.459 67.9933 174.798 68.1644C174.647 68.1944 174.507 68.2613 174.389 68.3591C174.271 68.4568 174.179 68.5824 174.121 68.7244C173.998 69.0824 173.998 69.4709 174.121 69.8289C174.207 70.2166 174.404 70.5707 174.689 70.8478H174.665Z" fill="white"/>
</svg>
