<svg width="231" height="94" viewBox="0 0 231 94" fill="none" xmlns="http://www.w3.org/2000/svg">
<path d="M223.52 8.78999C222.997 9.03508 222.401 9.07435 221.85 8.89999C221.482 8.82682 221.137 8.66336 220.847 8.42426C220.558 8.18515 220.332 7.87788 220.19 7.53C219.892 6.64098 219.892 5.67901 220.19 4.78999L221.29 0.589996L230.77 3.09L229.77 7.03C229.601 7.8765 229.167 8.64713 228.53 9.23C228.254 9.45285 227.926 9.60411 227.578 9.67039C227.229 9.73668 226.869 9.71593 226.53 9.61C226.045 9.49814 225.61 9.23135 225.29 8.85001C224.989 8.46021 224.808 7.99102 224.77 7.5C224.513 8.06052 224.072 8.51592 223.52 8.78999ZM222.18 7.92999C223.367 8.24999 224.177 7.58333 224.61 5.92999L225.46 2.72L221.84 1.72L221 5C220.56 6.63 221 7.60999 222.18 7.92999ZM226.18 2.92999L225.41 5.82001C225.212 6.40707 225.212 7.04294 225.41 7.63C225.51 7.86634 225.666 8.07468 225.864 8.2368C226.063 8.39892 226.298 8.50989 226.55 8.56C226.795 8.63909 227.056 8.65765 227.311 8.61412C227.565 8.57059 227.805 8.46626 228.01 8.31C228.47 7.89782 228.783 7.34644 228.9 6.74001L229.66 3.85001L226.18 2.92999Z" fill="white"/>
<path d="M223.07 19.52L222.73 20.46L215.82 17.91L216.16 16.98L223.07 19.52ZM220.73 16.52C220.445 16.6794 220.126 16.7697 219.8 16.7836C219.473 16.7974 219.148 16.7346 218.85 16.6C218.522 16.5026 218.222 16.3284 217.975 16.0919C217.728 15.8553 217.541 15.5633 217.43 15.24C217.222 14.4715 217.289 13.6542 217.62 12.93L218.62 10.2L225.53 12.75L225.19 13.68L222.77 12.79L222.02 14.79C221.802 15.5112 221.347 16.1381 220.73 16.57V16.52ZM218.2 14.73C218.283 14.9519 218.417 15.1514 218.59 15.3128C218.764 15.4742 218.973 15.593 219.2 15.66C219.408 15.7521 219.636 15.7938 219.863 15.7816C220.091 15.7695 220.313 15.7038 220.51 15.59C220.944 15.2564 221.263 14.7946 221.42 14.27L222.1 12.53L219 11.45L218.33 13.19C218.107 13.6897 218.061 14.2507 218.2 14.78V14.73Z" fill="white"/>
<path d="M212.47 27.15L210.08 26L210.49 25.15L212.09 25.92L214.92 19.92L213.31 19.16L213.72 18.31L216.11 19.44L215.93 19.83C215.74 20.28 215.93 20.74 216.48 21.2C217.263 21.805 218.1 22.3372 218.98 22.79L221.16 23.94L218.83 28.84L213 26.11L212.47 27.15ZM216.32 22.29C215.85 22.0135 215.495 21.5768 215.32 21.06L213.32 25.21L218.39 27.62L219.91 24.42L218.47 23.64C217.724 23.239 217.005 22.7879 216.32 22.29Z" fill="white"/>
<path d="M214.28 35.76C213.9 35.8571 213.504 35.8726 213.118 35.8054C212.732 35.7382 212.365 35.5898 212.04 35.37L208.04 33.1L208.51 32.27L209.51 32.84C209.284 32.4464 209.186 31.9919 209.23 31.54C209.27 31.0078 209.438 30.4932 209.72 30.04C210.033 29.4112 210.557 28.9122 211.2 28.63C211.476 28.5191 211.775 28.474 212.071 28.4983C212.368 28.5226 212.655 28.6156 212.91 28.77C213.17 28.9014 213.396 29.0919 213.57 29.3263C213.744 29.5608 213.86 29.8325 213.91 30.12C213.977 30.8843 213.775 31.6481 213.34 32.28L212.17 34.28L212.56 34.51C212.782 34.656 213.031 34.7545 213.293 34.7993C213.554 34.844 213.822 34.8341 214.08 34.77C214.609 34.5706 215.041 34.1772 215.29 33.67C215.518 33.2695 215.677 32.8334 215.76 32.38C215.845 31.9609 215.845 31.529 215.76 31.11H216.63C216.728 31.6152 216.728 32.1347 216.63 32.64C216.516 33.1892 216.314 33.7162 216.03 34.2C215.675 34.9303 215.046 35.491 214.28 35.76ZM210 32C210.033 32.4879 210.218 32.9533 210.53 33.33L211.53 33.93L212.68 31.93C213.31 30.84 213.24 30.07 212.48 29.64C212.313 29.5346 212.122 29.4722 211.925 29.4582C211.728 29.4443 211.53 29.4792 211.35 29.56C210.917 29.776 210.566 30.127 210.35 30.56C210.1 30.9973 209.978 31.4966 210 32Z" fill="white"/>
<path d="M206 42.42L209.45 37.32C209.155 37.1362 208.825 37.014 208.482 36.9607C208.138 36.9074 207.787 36.9242 207.45 37.01C206.74 37.202 206.129 37.6558 205.74 38.28C205.49 38.6339 205.317 39.0357 205.23 39.46C205.14 39.8651 205.14 40.2849 205.23 40.69L204.39 40.79C204.245 40.296 204.224 39.7738 204.33 39.27C204.446 38.7291 204.667 38.2162 204.98 37.76C205.366 37.1761 205.892 36.6983 206.51 36.37C207.086 36.0721 207.733 35.9405 208.38 35.99C209.056 36.0438 209.706 36.2787 210.26 36.67C210.823 37.0365 211.281 37.5431 211.59 38.14C211.887 38.6948 212.018 39.3228 211.97 39.95C211.906 40.5827 211.684 41.1891 211.324 41.7134C210.964 42.2377 210.477 42.6629 209.91 42.95C209.347 43.2208 208.721 43.3315 208.1 43.27C207.429 43.1969 206.789 42.9524 206.24 42.56L206 42.42ZM211.08 39.42C210.962 38.7597 210.606 38.1655 210.08 37.75L207.15 42.08C207.731 42.4245 208.421 42.5353 209.08 42.39C209.729 42.242 210.294 41.8429 210.65 41.28C211.006 40.7224 211.132 40.0483 211 39.4L211.08 39.42Z" fill="white"/>
<path d="M202.52 53.17L196.81 48.53L197.38 47.82L201.9 51.49L200 46.07L200.28 45.72L206 46.53L201.47 42.84L202.04 42.14L207.75 46.78L207.12 47.56L201.03 46.64L203.15 52.45L202.52 53.17Z" fill="white"/>
<path d="M188 58.68L186.17 56.77L186.84 56.12L188.08 57.4L192.83 52.83L191.59 51.55L192.27 50.9L194.1 52.81L193.8 53.1C193.47 53.46 193.48 53.96 193.8 54.58C194.317 55.4244 194.913 56.2179 195.58 56.95L197.22 58.8L193.3 62.56L188.8 57.88L188 58.68ZM193.32 55.5C192.99 55.0758 192.823 54.547 192.85 54.01L189.55 57.2L193.44 61.2L195.99 58.74L194.91 57.5C194.32 56.8751 193.779 56.2065 193.29 55.5H193.32Z" fill="white"/>
<path d="M190.72 64.89L189.95 65.51L186.25 60.98L186.14 68.62L185.45 69.17L180.8 63.46L181.57 62.84L185.27 67.38L185.37 59.74L186.06 59.18L190.72 64.89Z" fill="white"/>
<path d="M177.37 74.86L173.22 68.77L174.04 68.21L177.69 73.57L181.51 70.96L177.85 65.61L178.68 65.05L182.83 71.13L177.37 74.86Z" fill="white"/>
<path d="M169.39 79.54L165.74 73.14L166.61 72.65L169.81 78.28L172.88 76.54L172.06 74.91C171.488 73.8613 171.058 72.7416 170.78 71.58C170.67 71.2449 170.679 70.8824 170.805 70.5529C170.93 70.2235 171.165 69.9472 171.47 69.77C171.683 69.652 171.912 69.5645 172.15 69.51L172.51 70.29C172.397 70.3206 172.286 70.3607 172.18 70.41C172.022 70.4958 171.891 70.6253 171.804 70.7831C171.718 70.9409 171.678 71.1203 171.69 71.3C171.7 71.7633 171.805 72.2195 172 72.64C172.2 73.13 172.49 73.76 172.88 74.53L174.07 76.88L169.39 79.54Z" fill="white"/>
<path d="M162.56 75.21C163.204 75.2501 163.823 75.4682 164.35 75.84C164.901 76.2309 165.336 76.7628 165.61 77.38C165.914 78.0003 166.046 78.6913 165.99 79.38C165.944 80.0225 165.719 80.6392 165.34 81.16C164.945 81.702 164.414 82.1298 163.8 82.4C163.2 82.6912 162.536 82.8254 161.87 82.79C161.228 82.7477 160.612 82.526 160.09 82.15C159.548 81.7483 159.114 81.2181 158.828 80.6071C158.542 79.9962 158.412 79.3236 158.45 78.65C158.495 78.0091 158.717 77.3931 159.09 76.87C159.483 76.3277 160.01 75.8969 160.62 75.62C161.218 75.3113 161.888 75.1696 162.56 75.21ZM159.88 77.3C159.602 77.6901 159.443 78.1518 159.42 78.63C159.407 79.1515 159.516 79.6688 159.74 80.14C159.969 80.6194 160.312 81.035 160.74 81.35C161.121 81.6358 161.575 81.809 162.05 81.85C162.541 81.8816 163.032 81.7891 163.477 81.5812C163.923 81.3732 164.309 81.0564 164.6 80.66C164.87 80.263 165.026 79.7995 165.05 79.32C165.077 78.7985 164.971 78.2786 164.74 77.81C164.514 77.3317 164.17 76.9187 163.74 76.61C163.359 76.3159 162.9 76.1418 162.42 76.11C161.931 76.0727 161.441 76.1659 161 76.38C160.55 76.5784 160.162 76.8966 159.88 77.3Z" fill="white"/>
<path d="M150.29 87.72L147.78 80.8L148.63 80.49L150.63 85.96L151.75 80.31L152.17 80.16L156.66 83.78L154.66 78.29L155.51 77.98L158 84.9L157.05 85.25L152.3 81.33L151.13 87.4L150.29 87.72Z" fill="white"/>
<path d="M137.39 91.09L139.08 82.22C139.154 81.6144 139.385 81.0385 139.75 80.55C140.082 80.1668 140.532 79.9062 141.03 79.81C141.357 79.7328 141.695 79.7091 142.03 79.74C142.346 79.7746 142.651 79.8806 142.92 80.05L142.64 80.88C142.431 80.743 142.196 80.651 141.95 80.6096C141.704 80.5683 141.452 80.5787 141.21 80.64C140.905 80.7061 140.631 80.8714 140.43 81.11C140.207 81.4331 140.06 81.8023 140 82.19L139.86 82.96L144.75 89.36L143.75 89.6L139.61 84.14L138.35 90.87L137.39 91.09Z" fill="white"/>
<path d="M133.48 84.7C134.089 84.9158 134.625 85.2966 135.03 85.8C135.451 86.334 135.727 86.9679 135.83 87.64C135.951 88.31 135.892 89 135.66 89.64C135.438 90.2451 135.05 90.7754 134.54 91.17C134.002 91.5894 133.365 91.8616 132.69 91.96C132.111 92.0627 131.516 92.0319 130.95 91.87C130.426 91.7163 129.959 91.4099 129.61 90.99L130.26 90.38C130.534 90.6761 130.878 90.8994 131.26 91.03C131.665 91.1536 132.094 91.1777 132.51 91.1C133.007 91.0302 133.476 90.83 133.87 90.52C134.248 90.2175 134.53 89.8108 134.68 89.35C134.843 88.8471 134.884 88.3125 134.799 87.7907C134.713 87.2688 134.505 86.7749 134.19 86.35C133.898 85.9693 133.502 85.6811 133.05 85.52C132.58 85.3489 132.072 85.3074 131.58 85.4C131.164 85.4651 130.768 85.6223 130.42 85.86C130.071 86.1129 129.8 86.4596 129.64 86.86L128.82 86.49C129.023 85.9785 129.37 85.5371 129.82 85.22C130.302 84.8887 130.852 84.6699 131.43 84.58C132.112 84.4409 132.819 84.4823 133.48 84.7Z" fill="white"/>
<path d="M122.52 92.22L125.29 91.94L124.64 85.49L125.64 85.39L126.29 91.84L129.06 91.56L129.15 92.44L122.62 93.1L122.52 92.22Z" fill="white"/>
<path d="M116.08 92.7C115.8 92.4266 115.579 92.0978 115.433 91.7345C115.286 91.3713 115.217 90.9815 115.23 90.59L115.07 86.03H116.07V87.17C116.299 86.7639 116.648 86.4389 117.07 86.24C117.548 85.9993 118.075 85.8726 118.61 85.87C119.317 85.801 120.026 85.9853 120.61 86.39C120.848 86.5665 121.042 86.7954 121.177 87.059C121.313 87.3226 121.385 87.6138 121.39 87.91C121.409 88.1977 121.362 88.4858 121.253 88.7526C121.143 89.0195 120.975 89.2579 120.76 89.45C120.145 89.9107 119.387 90.1408 118.62 90.1L116.28 90.18V90.63C116.272 90.8956 116.319 91.16 116.419 91.4062C116.519 91.6524 116.669 91.8751 116.86 92.06C117.308 92.4014 117.87 92.5588 118.43 92.5C118.89 92.4881 119.344 92.3933 119.77 92.22C120.168 92.0653 120.534 91.8381 120.85 91.55L121.32 92.27C120.928 92.5918 120.481 92.8392 120 93C119.47 93.1902 118.913 93.2948 118.35 93.31C117.542 93.4148 116.726 93.1954 116.08 92.7ZM117 87.06C116.598 87.3417 116.297 87.7447 116.14 88.21L116.19 89.41L118.5 89.33C119.76 89.33 120.37 88.82 120.34 87.95C120.339 87.7529 120.29 87.559 120.198 87.3848C120.106 87.2107 119.973 87.0615 119.81 86.95C119.398 86.6927 118.913 86.5801 118.43 86.63C117.922 86.6322 117.425 86.7815 117 87.06Z" fill="white"/>
<path d="M112.31 93.4H111.31L111.45 90.14L106.82 89.94L106.68 93.2H105.68L105.99 85.84H106.99L106.85 89.09L111.49 89.28L111.62 86.04H112.62L112.31 93.4Z" fill="white"/>
<path d="M102.21 85.81C102.727 86.1926 103.131 86.7073 103.38 87.3C103.635 87.9337 103.721 88.6229 103.63 89.3C103.558 89.9711 103.305 90.6103 102.9 91.15C102.52 91.6673 102.005 92.0689 101.41 92.31C100.775 92.5593 100.086 92.6419 99.41 92.55C98.7463 92.4736 98.113 92.2292 97.57 91.84C97.0504 91.4628 96.6482 90.9462 96.41 90.35C96.1645 89.7227 96.0789 89.0442 96.1609 88.3756C96.243 87.707 96.4901 87.0693 96.88 86.52C97.2595 86.0026 97.7754 85.601 98.37 85.36C99.002 85.0981 99.693 85.0118 100.37 85.11C101.033 85.1808 101.667 85.4219 102.21 85.81ZM98.81 86.15C98.3681 86.3347 97.9894 86.6439 97.72 87.04C97.4273 87.469 97.2453 87.9636 97.19 88.48C97.1167 88.9962 97.1752 89.5225 97.36 90.01C97.5223 90.4613 97.8146 90.8545 98.2 91.14C98.5962 91.4294 99.062 91.6088 99.55 91.66C100.037 91.7341 100.536 91.6718 100.99 91.48C101.432 91.2962 101.814 90.9912 102.09 90.6C102.385 90.1651 102.572 89.6657 102.635 89.1438C102.697 88.6218 102.634 88.0924 102.45 87.6C102.283 87.154 101.991 86.7653 101.61 86.48C101.215 86.1866 100.749 86.0036 100.26 85.95C99.7675 85.8829 99.266 85.9521 98.81 86.15Z" fill="white"/>
<path d="M88.28 85.09C88.3256 84.8048 88.4406 84.5352 88.615 84.305C88.7894 84.0748 89.0178 83.8911 89.28 83.77C89.9844 83.519 90.7491 83.4911 91.47 83.69L94.75 84.36L93.28 91.57L90.1 90.93C89.4127 90.8264 88.772 90.52 88.26 90.05C87.9511 89.7098 87.7894 89.2613 87.81 88.8023C87.8306 88.3433 88.0319 87.9111 88.37 87.6C88.6522 87.3555 88.9998 87.199 89.37 87.15C88.9601 87.0101 88.619 86.719 88.4164 86.3362C88.2139 85.9533 88.1651 85.5076 88.28 85.09ZM92.98 88.17L90.81 87.73C90.3681 87.6087 89.8993 87.6296 89.47 87.79C89.2984 87.8548 89.1479 87.9656 89.035 88.1102C88.9221 88.2548 88.8512 88.4277 88.83 88.61C88.7844 88.785 88.7844 88.9688 88.8299 89.1438C88.8754 89.3189 88.9649 89.4793 89.09 89.61C89.4363 89.9131 89.864 90.1078 90.32 90.17L92.48 90.61L92.98 88.17ZM89.89 84.48C89.7134 84.5516 89.559 84.669 89.443 84.8202C89.327 84.9714 89.2534 85.1508 89.23 85.34C89.1859 85.5129 89.1837 85.6939 89.2237 85.8679C89.2637 86.0418 89.3447 86.2037 89.46 86.34C89.8202 86.6552 90.2655 86.8569 90.74 86.92L93.13 87.4L93.64 84.89L91.35 84.43C90.8679 84.3127 90.3629 84.33 89.89 84.48Z" fill="white"/>
<path d="M78.76 88L80.76 80.92L81.71 81.19L80 87.45L83.39 88.45L83.99 86.73C84.3324 85.5841 84.8304 84.4906 85.47 83.48C85.6335 83.167 85.8995 82.9198 86.2235 82.7796C86.5476 82.6394 86.91 82.6148 87.25 82.71C87.4795 82.7794 87.6982 82.8804 87.9 83.01L87.6 83.81L87.28 83.66C87.1036 83.6106 86.9171 83.6106 86.7408 83.66C86.5644 83.7094 86.405 83.8062 86.28 83.94C85.9615 84.2721 85.7102 84.6625 85.54 85.09C85.33 85.58 85.09 86.23 84.81 87.04L83.96 89.53L78.76 88Z" fill="white"/>
<path d="M71.08 81L76.85 83.15C76.9608 82.8144 77.0029 82.4599 76.9737 82.1077C76.9445 81.7555 76.8446 81.4128 76.68 81.1C76.3028 80.465 75.7046 79.9914 75 79.77C74.5987 79.6147 74.1699 79.5432 73.74 79.56C73.3251 79.5811 72.9195 79.6902 72.55 79.88L72.25 79.09C72.699 78.8337 73.2033 78.6896 73.72 78.67C74.273 78.6573 74.8233 78.7524 75.34 78.95C76.0017 79.1802 76.5914 79.5803 77.05 80.11C77.4804 80.5931 77.7618 81.1905 77.86 81.83C77.9694 82.5035 77.8969 83.194 77.65 83.83C77.4228 84.4633 77.0372 85.028 76.53 85.47C76.0586 85.8869 75.4803 86.164 74.86 86.27C74.2235 86.3769 73.57 86.3077 72.97 86.07C72.3761 85.8569 71.8509 85.4872 71.45 85C71.052 84.5207 70.7988 83.938 70.72 83.32C70.6281 82.6438 70.7107 81.9553 70.96 81.32L71.08 81ZM75.21 85.22C75.8275 84.9556 76.321 84.4656 76.59 83.85L71.7 82.02C71.5055 82.666 71.559 83.3613 71.85 83.97C71.9962 84.2656 72.1997 84.5292 72.4486 84.7455C72.6975 84.9618 72.9869 85.1265 73.3 85.23C73.9094 85.4871 74.5954 85.4942 75.21 85.25V85.22Z" fill="white"/>
<path d="M67.28 83.75L66.38 83.33L67.76 80.33L63.57 78.33L62.18 81.33L61.28 80.91L64.41 74.24L65.31 74.66L63.93 77.6L68.12 79.6L69.5 76.66L70.4 77.08L67.28 83.75Z" fill="white"/>
<path d="M58.41 79.44L57.54 78.94L59.17 76.12L55.17 73.8L53.54 76.63L52.68 76.14L56.35 69.75L57.21 70.25L55.59 73.07L59.59 75.38L61.21 72.56L62.07 73.06L58.41 79.44Z" fill="white"/>
<path d="M53 68C53.2848 68.5762 53.4058 69.2196 53.35 69.86C53.2924 70.534 53.054 71.1801 52.66 71.73C52.2846 72.2916 51.767 72.7436 51.16 73.04C50.578 73.3173 49.9317 73.4313 49.29 73.37C48.6279 73.288 47.9955 73.0469 47.4469 72.6673C46.8984 72.2876 46.4499 71.7808 46.14 71.19C45.8505 70.6189 45.7291 69.9774 45.79 69.34C45.8575 68.6666 46.0987 68.0222 46.49 67.47C46.8654 66.9084 47.383 66.4563 47.99 66.16C48.5652 65.8725 49.2103 65.7546 49.85 65.82C50.5157 65.8871 51.1529 66.1247 51.7 66.51C52.2579 66.8825 52.7065 67.3968 53 68ZM49.84 66.73C49.3626 66.688 48.8833 66.7853 48.46 67.01C48.0056 67.2475 47.6147 67.5904 47.32 68.01C47.0182 68.4331 46.8258 68.9244 46.76 69.44C46.7004 69.9148 46.7767 70.3968 46.98 70.83C47.2061 71.2663 47.5359 71.6404 47.9404 71.9194C48.3449 72.1984 48.8118 72.3737 49.3 72.43C49.7768 72.4623 50.2535 72.3656 50.68 72.15C51.1401 71.9168 51.5352 71.5732 51.83 71.15C52.1356 70.7261 52.3252 70.2297 52.38 69.71C52.4423 69.2341 52.3622 68.7504 52.15 68.32C51.9396 67.8762 51.6109 67.499 51.2 67.23C50.7803 66.9518 50.293 66.7928 49.79 66.77L49.84 66.73Z" fill="white"/>
<path d="M38.89 65.09L42.18 67.72L46.18 62.65L46.96 63.27L42.41 69L38.34 65.75L38.89 65.09Z" fill="white"/>
<path d="M41.09 58.94C41.2894 59.5505 41.3205 60.2034 41.18 60.83C41.0176 61.4849 40.695 62.0891 40.2412 62.5884C39.7873 63.0876 39.2165 63.4662 38.58 63.69C37.9686 63.8857 37.3158 63.9133 36.69 63.77C36.039 63.611 35.4399 63.2873 34.95 62.83C34.4506 62.3811 34.0723 61.8136 33.85 61.18C33.6453 60.574 33.6141 59.9228 33.76 59.3C33.9224 58.6452 34.245 58.0409 34.6988 57.5417C35.1527 57.0425 35.7235 56.6639 36.36 56.44C36.9704 56.2406 37.6234 56.2095 38.25 56.35C38.9024 56.5052 39.5026 56.8294 39.99 57.29C40.4937 57.7351 40.8728 58.3038 41.09 58.94ZM38.09 57.26C37.6243 57.1552 37.1384 57.1865 36.69 57.35C36.2025 57.5331 35.7668 57.8316 35.42 58.22C35.0615 58.6006 34.8037 59.0646 34.67 59.57C34.5399 60.0276 34.5399 60.5124 34.67 60.97C34.8356 61.434 35.1129 61.85 35.4774 62.1814C35.8419 62.5127 36.2824 62.7493 36.76 62.87C37.226 62.9699 37.7106 62.9388 38.16 62.78C38.6505 62.5973 39.0896 62.2989 39.44 61.91C39.7959 61.5292 40.0504 61.0649 40.18 60.56C40.3153 60.0998 40.3153 59.6103 40.18 59.15C40.0247 58.6832 39.7487 58.2658 39.38 57.94C39.0271 57.6065 38.5925 57.3719 38.12 57.26H38.09Z" fill="white"/>
<path d="M32.29 50.29C32.4292 50.918 32.3911 51.5724 32.18 52.18C31.9502 52.8165 31.5627 53.3843 31.0538 53.8303C30.5449 54.2763 29.9311 54.5858 29.27 54.73C28.6434 54.8625 27.9923 54.8175 27.39 54.6C26.7646 54.364 26.2068 53.9778 25.7657 53.4756C25.3245 52.9735 25.0135 52.3706 24.86 51.72C24.7211 51.0953 24.7592 50.4442 24.97 49.84C25.2052 49.2085 25.5931 48.6452 26.0992 48.2002C26.6052 47.7552 27.2136 47.4425 27.87 47.29C28.4989 47.154 29.1533 47.1956 29.76 47.41C30.3891 47.6399 30.9504 48.024 31.3925 48.5272C31.8345 49.0304 32.1431 49.6365 32.29 50.29ZM29.53 48.29C29.078 48.1402 28.5931 48.1194 28.13 48.23C27.6236 48.358 27.1565 48.6087 26.77 48.96C26.37 49.2925 26.0633 49.7232 25.88 50.21C25.7012 50.6543 25.6594 51.1418 25.76 51.61C25.873 52.0859 26.1006 52.5269 26.4231 52.8947C26.7455 53.2624 27.153 53.5458 27.61 53.72C28.0636 53.8778 28.553 53.9021 29.02 53.79C29.5261 53.6575 29.9937 53.4073 30.3847 53.0597C30.7757 52.7121 31.079 52.2771 31.27 51.79C31.443 51.3444 31.4846 50.8586 31.39 50.39C31.2833 49.9087 31.057 49.4621 30.7318 49.0915C30.4067 48.7209 29.9933 48.4384 29.53 48.27V48.29Z" fill="white"/>
<path d="M19.05 43.94C18.9692 43.3363 19.0629 42.7221 19.32 42.17C19.6006 41.5848 20.0235 41.0794 20.55 40.7C21.076 40.2901 21.6999 40.0247 22.36 39.93C22.981 39.8465 23.6128 39.9437 24.18 40.21C24.7888 40.4978 25.315 40.9346 25.71 41.48C26.0563 41.8983 26.297 42.3938 26.4118 42.9245C26.5267 43.4553 26.5123 44.0059 26.37 44.53C25.977 45.7323 25.1872 46.7655 24.13 47.46C23.1549 48.2824 21.9505 48.7851 20.68 48.9C19.5417 48.8796 18.4514 48.4378 17.62 47.66L15 45.47L15.63 44.79L18.06 46.85C18.7151 47.4935 19.5673 47.8985 20.48 48C21.4206 47.9842 22.3302 47.6611 23.07 47.08C22.4597 47.1807 21.8335 47.1115 21.26 46.88C20.6661 46.6281 20.1513 46.2204 19.77 45.7C19.3791 45.187 19.1307 44.5799 19.05 43.94ZM23.92 41.06C23.4875 40.8789 23.0136 40.8201 22.55 40.89C22.0493 40.9789 21.5765 41.1845 21.17 41.49C20.7691 41.7801 20.4462 42.1649 20.23 42.61C20.0352 43.0244 19.9657 43.4867 20.03 43.94C20.0928 44.4211 20.2826 44.8767 20.58 45.26C20.8673 45.6546 21.2489 45.9709 21.69 46.18C22.1101 46.3674 22.5744 46.4332 23.03 46.37C23.5211 46.2916 23.985 46.0922 24.38 45.79C24.8019 45.4937 25.1451 45.0989 25.38 44.64C25.5887 44.2191 25.6687 43.7461 25.61 43.28C25.5282 42.8054 25.3171 42.3625 25 42C24.7312 41.5952 24.358 41.2704 23.92 41.06Z" fill="white"/>
<path d="M13.45 35.8C13.4184 35.1661 13.5638 34.5359 13.87 33.98C14.2104 33.3942 14.6916 32.9027 15.27 32.55C15.8455 32.1791 16.5066 31.9622 17.19 31.92C17.8231 31.8827 18.454 32.0248 19.01 32.33C19.5798 32.6556 20.0579 33.1199 20.4 33.68C20.7029 34.1526 20.8881 34.691 20.94 35.25C20.9788 35.7938 20.8754 36.3383 20.64 36.83L24.12 34.66L24.65 35.5L16.09 40.83L15.59 40.02L16.83 39.25C16.2755 39.262 15.7286 39.1201 15.25 38.84C14.7554 38.5439 14.3402 38.1321 14.04 37.64C13.6897 37.087 13.4866 36.4536 13.45 35.8ZM18.64 33.21C18.2184 32.9795 17.7392 32.8753 17.26 32.91C16.7411 32.947 16.2395 33.1119 15.8 33.39C15.3523 33.6588 14.9806 34.0374 14.72 34.49C14.4853 34.9077 14.3679 35.381 14.38 35.86C14.3996 36.3498 14.5479 36.8258 14.81 37.24C15.0638 37.6652 15.4308 38.0114 15.87 38.24C16.2916 38.4706 16.7707 38.5747 17.25 38.54C17.7675 38.5048 18.2671 38.336 18.7 38.05C19.1434 37.7975 19.5151 37.4362 19.78 37C20.0255 36.5863 20.147 36.1108 20.13 35.63C20.1051 35.1397 19.9535 34.6642 19.69 34.25C19.4427 33.8131 19.0793 33.4531 18.64 33.21Z" fill="white"/>
<path d="M9.37999 27.8C9.50349 27.4283 9.70468 27.0871 9.97021 26.7992C10.2357 26.5113 10.5595 26.2832 10.92 26.13L14.92 24.03L15.36 24.88L14.36 25.4C14.8136 25.4313 15.2481 25.5947 15.61 25.87C16.0333 26.1937 16.3757 26.6114 16.61 27.09C16.9659 27.692 17.1003 28.3994 16.99 29.09C16.9412 29.379 16.8265 29.6529 16.6548 29.8905C16.4831 30.128 16.2591 30.3229 16 30.46C15.7508 30.6013 15.4725 30.6837 15.1866 30.7011C14.9006 30.7184 14.6145 30.6702 14.35 30.56C13.6713 30.1961 13.1382 29.61 12.84 28.9L11.77 26.83L11.37 27.03C11.1322 27.1386 10.9202 27.2963 10.7478 27.4928C10.5754 27.6893 10.4467 27.9201 10.37 28.17C10.2512 28.7215 10.3478 29.2975 10.64 29.78C10.8519 30.1884 11.1327 30.5571 11.47 30.87C11.7774 31.1662 12.1413 31.3975 12.54 31.55L12.09 32.29C11.6139 32.0949 11.1819 31.8058 10.82 31.44C10.41 31.0522 10.0715 30.5952 9.81999 30.09C9.37784 29.4142 9.21976 28.5915 9.37999 27.8ZM14.86 26.21C14.4358 25.9678 13.9446 25.8696 13.46 25.93L12.39 26.48L13.46 28.54C14.04 29.65 14.72 30.01 15.46 29.61C15.636 29.5252 15.7889 29.3991 15.9056 29.2424C16.0223 29.0856 16.0993 28.903 16.13 28.71C16.1851 28.2263 16.0797 27.7379 15.83 27.32C15.62 26.8645 15.2833 26.4791 14.86 26.21Z" fill="white"/>
<path d="M9.12998 18.79C9.21577 18.6075 9.3368 18.4437 9.4861 18.3081C9.63541 18.1725 9.81005 18.0678 9.99998 18C10.3889 17.8283 10.8284 17.8104 11.23 17.95C11.6891 18.1043 12.0995 18.3768 12.42 18.74C12.8051 19.1576 13.1162 19.6378 13.34 20.16C13.5508 20.6472 13.689 21.1627 13.75 21.69C13.8117 22.1913 13.7812 22.6997 13.66 23.19H12.85C12.9443 22.76 12.968 22.3176 12.92 21.88C12.8709 21.4216 12.7529 20.9732 12.57 20.55C12.3693 20.0071 12.0234 19.5297 11.57 19.17C11.404 19.0287 11.2022 18.9362 10.9868 18.9027C10.7715 18.8691 10.551 18.8959 10.35 18.98C10.1745 19.0493 10.0223 19.1669 9.91082 19.319C9.79934 19.4712 9.73318 19.6518 9.71998 19.84C9.67955 20.343 9.77632 20.8476 9.99998 21.3L10.5 22.46L9.83998 22.75L9.35998 21.64C9.19533 21.2063 8.91098 20.8284 8.53998 20.55C8.39881 20.4433 8.23187 20.376 8.05619 20.3549C7.8805 20.3338 7.70237 20.3597 7.53998 20.43C7.36347 20.5023 7.21132 20.6235 7.10146 20.7794C6.99161 20.9353 6.92864 21.1194 6.91998 21.31C6.87555 21.8229 6.97238 22.3382 7.19998 22.8C7.53329 23.5515 8.04471 24.2105 8.68998 24.72L8.08998 25.28C7.32114 24.6823 6.71859 23.8972 6.33998 23C6.12398 22.5305 5.99521 22.0256 5.95997 21.51C5.92052 21.0822 5.99288 20.6514 6.16998 20.26C6.32759 19.9134 6.60951 19.6387 6.95998 19.49C7.30379 19.3546 7.68616 19.3546 8.02998 19.49C8.4205 19.6285 8.76612 19.8705 9.02998 20.19C8.91927 19.7241 8.95417 19.2354 9.12998 18.79Z" fill="white"/>
<path d="M7.80998 8.24001L10.37 7.35001L10.68 8.24001L8.92998 8.84L11.14 15.21L4.13998 17.62L3.80998 16.68L9.99998 14.55L8.52998 10.3L2.38998 12.43L2.06998 11.49L8.19998 9.37L7.80998 8.24001Z" fill="white"/>
<path d="M0.509986 3.37C0.713347 3.03645 0.985196 2.74989 1.30756 2.52924C1.62992 2.30858 1.99545 2.15886 2.37998 2.09L6.79998 0.940002L7.03999 1.86L5.92999 2.14999C6.36556 2.2749 6.75275 2.52955 7.03999 2.88C7.37856 3.28998 7.61809 3.77245 7.73999 4.28999C7.95824 4.96033 7.93346 5.68611 7.66999 6.34C7.55025 6.61303 7.37099 6.85584 7.14532 7.05066C6.91965 7.24548 6.65327 7.3874 6.36569 7.466C6.07811 7.54461 5.77659 7.55792 5.4832 7.50497C5.1898 7.45203 4.91195 7.33417 4.66999 7.16C4.0899 6.65591 3.70139 5.9672 3.56999 5.21001L2.99999 3L2.55999 3.11C2.29825 3.15894 2.04982 3.26264 1.83095 3.41429C1.61209 3.56594 1.42774 3.76214 1.28999 3.99001C1.05306 4.50194 1.02086 5.08509 1.19999 5.62C1.31835 6.0609 1.50748 6.47968 1.75999 6.86C1.99948 7.21773 2.30493 7.52657 2.65999 7.77L2.04998 8.39C1.64743 8.08477 1.30783 7.70443 1.04998 7.27C0.745955 6.80051 0.522858 6.28333 0.389985 5.74001C0.253363 5.35644 0.193643 4.94971 0.214232 4.54306C0.234822 4.13641 0.33532 3.7378 0.509986 3.37ZM6.20998 3.03999C5.85044 2.71167 5.39448 2.50826 4.90999 2.46001L3.73999 2.75999L4.31999 5C4.63999 6.21 5.21999 6.71001 6.06999 6.49001C6.26288 6.44981 6.44265 6.36193 6.59287 6.23442C6.74309 6.10691 6.85899 5.9438 6.92999 5.75999C7.08326 5.29907 7.08326 4.80092 6.92999 4.34C6.8261 3.83256 6.57578 3.3667 6.20998 3V3.03999Z" fill="white"/>
</svg>
