<svg width="40" height="40" viewBox="0 0 40 40" fill="none" xmlns="http://www.w3.org/2000/svg">
<path d="M26 1H10C8.89543 1 8 1.89543 8 3V37C8 38.1046 8.89543 39 10 39H34C35.1046 39 36 38.1046 36 37V11" stroke="#151516" stroke-width="2"/>
<path d="M36 11L26 1V11H36Z" stroke="#151516" stroke-width="2" stroke-linecap="round" stroke-linejoin="round"/>
<path d="M5 30V19H11V30L8 27L5 30Z" fill="white" stroke="#3F88FB" stroke-width="2" stroke-linecap="round" stroke-linejoin="round"/>
<path d="M9.29289 8.70711C9.48043 8.89464 9.73478 9 10 9H13V12C13 12.2652 13.1054 12.5196 13.2929 12.7071L14.5858 14L13.2929 15.2929C13.1054 15.4804 13 15.7348 13 16V19H10C9.73479 19 9.48043 19.1054 9.2929 19.2929L8 20.5858L6.70711 19.2929C6.51957 19.1054 6.26522 19 6 19H3V16C3 15.7348 2.89464 15.4804 2.70711 15.2929L1.41421 14L2.70711 12.7071C2.89464 12.5196 3 12.2652 3 12V9H6C6.26522 9 6.51957 8.89464 6.70711 8.70711L8 7.41421L9.29289 8.70711Z" fill="white" stroke="#3F88FB" stroke-width="2" stroke-linejoin="round"/>
<circle cx="8" cy="14" r="2" fill="#3F88FB"/>
<rect x="18.5" y="16.5" width="12" height="1" rx="0.5" fill="#3F88FB" stroke="#151516"/>
<rect x="18.5" y="22.5" width="12" height="1" rx="0.5" fill="#3F88FB" stroke="#151516"/>
<rect x="18.5" y="28.5" width="12" height="1" rx="0.5" fill="#3F88FB" stroke="#151516"/>
</svg>
