<svg width="40" height="40" viewBox="0 0 40 40" fill="none" xmlns="http://www.w3.org/2000/svg">
<rect width="40" height="40" fill="white"/>
<path d="M11 18C11 13.0294 15.0294 9 20 9C24.9706 9 29 13.0294 29 18V29C29 33.9706 24.9706 38 20 38C15.0294 38 11 33.9706 11 29V18Z" stroke="#151516" stroke-width="2"/>
<path d="M11 20H17C19.7614 20 22 17.7614 22 15V10" stroke="#151516" stroke-width="2" stroke-linecap="round" stroke-linejoin="round"/>
<path d="M22 15H24C26.7614 15 29 17.2386 29 20V20" stroke="#151516" stroke-width="2" stroke-linecap="round" stroke-linejoin="round"/>
<path d="M37 17C37 8.16344 29.3888 1 20 1C10.6112 1 3 8.16344 3 17" stroke="#3F88FB" stroke-width="2"/>
<path d="M1 20C1 18.3431 2.34315 17 4 17H7V30H4C2.34315 30 1 28.6569 1 27V20Z" fill="white" stroke="#3F88FB" stroke-width="2" stroke-linejoin="round"/>
<path d="M39 20C39 18.3431 37.6569 17 36 17H33V29H36C37.6569 29 39 27.6569 39 26V20Z" fill="white" stroke="#3F88FB" stroke-width="2" stroke-linejoin="round"/>
<path d="M3 30V32C3 33.1046 3.89543 34 5 34H19" stroke="#3F88FB" stroke-width="2" stroke-linecap="round" stroke-linejoin="round"/>
<path d="M21 34H19C17.8954 34 17 33.1046 17 32C17 30.8954 17.8954 30 19 30H21C22.1046 30 23 30.8954 23 32C23 33.1046 22.1046 34 21 34Z" stroke="#3F88FB" stroke-width="2" stroke-linecap="round" stroke-linejoin="round"/>
</svg>
