<svg width="20" height="20" viewBox="0 0 20 20" fill="none" xmlns="http://www.w3.org/2000/svg">
<circle cx="10" cy="10" r="10" fill="white"/>
<path d="M8.264 5.6H11.504L10.964 10.784H8.804L8.264 5.6ZM9.884 14.12C9.42 14.12 9.04 13.98 8.744 13.7C8.448 13.42 8.3 13.08 8.3 12.68C8.3 12.272 8.448 11.936 8.744 11.672C9.04 11.4 9.42 11.264 9.884 11.264C10.348 11.264 10.728 11.4 11.024 11.672C11.32 11.936 11.468 12.272 11.468 12.68C11.468 13.08 11.32 13.42 11.024 13.7C10.728 13.98 10.348 14.12 9.884 14.12Z" fill="#3F88FB"/>
</svg>
